<svg xmlns="http://www.w3.org/2000/svg" style="color:#000;stroke:#7f7f7f;fill:none;stroke-width:.25;font-size:8" id="bamboo-4fg-se-s-pt" width="248" height="176" version="1.1"><title id="title">Wacom Bamboo Special Edition Pen &amp; Touch small (CTH-461SE)</title><g><path id="ButtonA" d="M 26 29 a 7 7 0 0 1 7 -7 l 14 0 l 0 39 l -21 0 z" class="A Button"/><circle id="DotA" cx="36.5" cy="41.5" r=".5"/><path id="LeaderA" d="M 48 42 l 20 0" class="A Leader"/><text id="LabelA" x="70" y="42" class="A Label" style="text-anchor:start">A</text></g><g><rect id="ButtonB" width="21" height="24" x="26" y="62" class="B Button" rx=".5" ry=".5"/><circle id="DotB" cx="36.5" cy="73.5" r=".5"/><path id="LeaderB" d="M 48 74 l 20 0" class="B Leader"/><text id="LabelB" x="70" y="74" class="B Label" style="text-anchor:start">B</text></g><rect width="21" height="2" x="26" y="87" rx="1" ry="1"/><g><rect id="ButtonC" width="21" height="24" x="26" y="90" class="C Button" rx=".5" ry=".5"/><circle id="DotC" cx="36.5" cy="101.5" r=".5"/><path id="LeaderC" d="M 48 102 l 20 0" class="C Leader"/><text id="LabelC" x="70" y="102" class="C Label" style="text-anchor:start">C</text></g><g><path id="ButtonD" d="M 26 147 a 7 7 0 0 0 7 7 l 14 0 l 0 -39 l -21 0 z" class="D Button"/><circle id="DotD" cx="36.5" cy="133.5" r=".5"/><path id="LeaderD" d="M 48 134 l 20 0" class="D Leader"/><text id="LabelD" x="70" y="134" class="D Label" style="text-anchor:start">D</text></g></svg>