<svg xmlns="http://www.w3.org/2000/svg" style="color:#000;stroke:#7f7f7f;fill:none;stroke-width:.25;font-size:8" id="bamboo-4fg-s-pt" width="248" height="176" version="1.1"><title id="title">Wacom Bamboo 2FG 4x5 (CTH-460(A))</title><g><rect id="ButtonA" width="28" height="36" x="28" y="31" class="A Button" rx=".5" ry=".5"/><circle id="DotA" cx="41.5" cy="48.5" r=".5"/><path id="LeaderA" d="M 58 49 l 20 0" class="A Leader"/><text id="LabelA" x="80" y="49" class="A Label" style="text-anchor:start">A</text></g><g><rect id="ButtonB" width="28" height="18" x="28" y="68" class="B Button" rx=".5" ry=".5"/><circle id="DotB" cx="41.5" cy="77.5" r=".5"/><path id="LeaderB" d="M 58 78 l 20 0" class="B Leader"/><text id="LabelB" x="80" y="78" class="B Label" style="text-anchor:start">B</text></g><rect width="28" height="2" x="28" y="87" rx="1" ry="1"/><g><rect id="ButtonC" width="28" height="18" x="28" y="90" class="C Button" rx=".5" ry=".5"/><circle id="DotC" cx="41.5" cy="99.5" r=".5"/><path id="LeaderC" d="M 58 100 l 20 0" class="C Leader"/><text id="LabelC" x="80" y="100" class="C Label" style="text-anchor:start">C</text></g><g><rect id="ButtonD" width="28" height="36" x="28" y="109" class="D Button" rx=".5" ry=".5"/><circle id="DotD" cx="41.5" cy="126.5" r=".5"/><path id="LeaderD" d="M 58 127 l 20 0" class="D Leader"/><text id="LabelD" x="80" y="127" class="D Label" style="text-anchor:start">D</text></g></svg>