<svg xmlns="http://www.w3.org/2000/svg" style="color:#000;stroke:#7f7f7f;fill:none;stroke-width:.25;font-size:8" id="bamboo-2fg-s-t" width="208" height="136" version="1.1"><title id="title">Wacom Bamboo Touch (2FG) (CTT-460)</title><g><rect id="ButtonA" width="28" height="36" x="17" y="11" class="A Button" rx=".5" ry=".5"/><circle id="DotA" cx="30.5" cy="28.5" r=".5"/><path id="LeaderA" d="M 47 29 l 20 0" class="A Leader"/><text id="LabelA" x="69" y="29" class="A Label" style="text-anchor:start">A</text></g><g><rect id="ButtonB" width="28" height="18" x="17" y="48" class="B Button" rx=".5" ry=".5"/><circle id="DotB" cx="30.5" cy="57.5" r=".5"/><path id="LeaderB" d="M 47 58 l 20 0" class="B Leader"/><text id="LabelB" x="69" y="58" class="B Label" style="text-anchor:start">B</text></g><rect width="28" height="2" x="17" y="67" rx="1" ry="1"/><g><rect id="ButtonC" width="28" height="18" x="17" y="70" class="C Button" rx=".5" ry=".5"/><circle id="DotC" cx="30.5" cy="79.5" r=".5"/><path id="LeaderC" d="M 47 80 l 20 0" class="C Leader"/><text id="LabelC" x="69" y="80" class="C Label" style="text-anchor:start">C</text></g><g><rect id="ButtonD" width="28" height="36" x="17" y="89" class="D Button" rx=".5" ry=".5"/><circle id="DotD" cx="30.5" cy="106.5" r=".5"/><path id="LeaderD" d="M 47 107 l 20 0" class="D Leader"/><text id="LabelD" x="69" y="107" class="D Label" style="text-anchor:start">D</text></g></svg>