<svg xmlns="http://www.w3.org/2000/svg" style="color:#000;stroke:#7f7f7f;fill:none;stroke-width:.25;font-size:8" id="bamboo-4fg-se-m-pt" width="337" height="222" version="1.1"><title id="title">Wacom Bamboo Special Edition Pen &amp; Touch medium (CTH-661SE)</title><g><path id="ButtonA" d="M 35 35 a 9 9 0 0 1 9 -9 l 19 0 l 0 50 l -28 0 z" class="A Button"/><circle id="DotA" cx="49.5" cy="52.5" r=".5"/><path id="LeaderA" d="M 65 53 l 20 0" class="A Leader"/><text id="LabelA" x="87" y="53" class="A Label" style="text-anchor:start">A</text></g><g><rect id="ButtonB" width="28" height="32" x="35" y="77" class="B Button" rx=".5" ry=".5"/><circle id="DotB" cx="49.5" cy="93.5" r=".5"/><path id="LeaderB" d="M 65 94 l 20 0" class="B Leader"/><text id="LabelB" x="87" y="94" class="B Label" style="text-anchor:start">B</text></g><rect width="28" height="2" x="35" y="110" rx="1" ry="1"/><g><rect id="ButtonC" width="28" height="32" x="35" y="113" class="C Button" rx=".5" ry=".5"/><circle id="DotC" cx="49.5" cy="127.5" r=".5"/><path id="LeaderC" d="M 65 128 l 20 0" class="C Leader"/><text id="LabelC" x="87" y="128" class="C Label" style="text-anchor:start">C</text></g><g><path id="ButtonD" d="M 35 187 a 9 9 0 0 0 9 9 l 19 0 l 0 -50 l -28 0 z" class="D Button"/><circle id="DotD" cx="49.5" cy="169.5" r=".5"/><path id="LeaderD" d="M 65 170 l 20 0" class="D Leader"/><text id="LabelD" x="87" y="170" class="D Label" style="text-anchor:start">D</text></g></svg>