<svg xmlns="http://www.w3.org/2000/svg" width="193mm" height="180mm" version="1.1" style="color:#000;stroke:#7f7f7f;fill:none;stroke-width:.25;font-size:8"><title id="title">Wacom Bamboo MTE-450</title><g><path id="ButtonA" d="m 180.5,0.0 0,73.0 94.5,0 a 68.0,68.0 0 0 1 65.0,-67.5 l 0,-5.5 -160.0,0 z" class="A Button"/><path id="LeaderA" d="m 178.0,38.0 l -25.0 0.0" class="A Leader"/><text id="LabelA" x="151" y="38" class="A Label" style="text-anchor:end">A</text><path id="ButtonAArrow" d="m 234.0,28.5 -7.0,7.0 7.0,7.0"/></g><g><path id="ButtonB" d="m 344.0,0.0 0,5.5 a 68.0,68.0 0 0 1 67.0,67.5 l 92.5,0 0,-73.0 -159.5,0 z" class="B Button"/><path id="LeaderB" d="m 532.0,38.0 l -25.0 0.0" class="B Leader"/><text id="LabelB" x="534" y="38" class="B Label" style="text-anchor:start">B</text><path id="ButtonBArrow" d="m 446.5,28.5 7.0,7.0 -7.0,7.0"/></g><g><path id="ButtonC" d="m 180.5,76.5 0,72.5 160.0,0 0,-8.5 a 68.0,68.0 0 0 1 -65.0,-64.5 l -95.0,0 z" class="C Button"/><path id="LeaderC" d="m 178.0,115.0 l -25.0 0.0" class="C Leader"/><text id="LabelC" x="151" y="115" class="C Label" style="text-anchor:end">C</text></g><g><path id="ButtonD" d="m 410.5,76.5 a 68.0,68.0 0 0 1 -66.5,64.5 l 0,8.0 159.5,0 0,-72.5 -92.5,0 z" class="D Button"/><path id="LeaderD" d="m 532.0,115.0 l -25.0 0.0" class="D Leader"/><text id="LabelD" x="534" y="115" class="D Label" style="text-anchor:start">D</text></g><g><circle id="Ring" cx="342" cy="74.5" r="50.5" class="Ring TouchRing"/><path id="RingCCW" d="m 372.5,103.0 -3.5,-3.5 c 17.5,-17.5 7.0,-42.5 3.5,-53.1 7.0,7.0 21.5,39.0 0,56.5 z" class="RingCW Button"/><path id="RingDown" d="m 340.0,35.5 -3.5,7.0 7.0,0 z" class="RingCCW Button"/><path id="LeaderRingCCW" d="m 372.5,110.0 l 0.0,55.0 l 30.0,0.0" class="RingCCW Ring Leader"/><text id="LabelRingCCW" x="404" y="165" class="RingCCW Ring Label" style="text-anchor:start">CCW</text><path id="RingCW" d="m 312.0,46.0 3.5,3.5 c -17.5,17.5 -7.0,42.5 -3.5,53.0 -7.0,-7.0 -21.5,-39.0 0,-56.5 z" class="RingCW Button"/><path id="RingUp" d="m 340.0,117.0 -3.5,-7.0 7.0,0 z" class="RingCW Button"/><path id="LeaderRingCW" d="m 312.0,110.0 l 0.0,55.0 l -30.0,0.0" class="RingCW Ring Leader"/><text id="LabelRingCW" x="280" y="165" class="RingCW Ring Label" style="text-anchor:end">CW</text></g></svg>