<svg xmlns="http://www.w3.org/2000/svg" style="color:#000;stroke:#7f7f7f;fill:none;stroke-width:.25;font-size:8" id="cintiq-12wx" width="405" height="270" version="1.1"><title id="title">Wacom Cintiq 12WX</title><g><rect id="ButtonA" width="11" height="17" x="40" y="54" class="A Button" rx=".5" ry=".5"/><path id="LeaderA" d="M 53 63 L 65 63 L 65 72 L 78 72" class="A Leader"/><text id="LabelA" x="80" y="72" class="A Label" style="text-anchor:start">A</text></g><g><rect id="ButtonB" width="11" height="17" x="40" y="72" class="B Button" rx=".5" ry=".5"/><circle id="DotB1" cx="45.5" cy="77.5" r=".5"/><circle id="DotB2" cx="45.5" cy="80.5" r=".5"/><circle id="DotB3" cx="45.5" cy="83.5" r=".5"/><path id="LeaderB" d="M 53 81 L 65 81 L 65 87 L 78 87" class="B Leader"/><text id="LabelB" x="80" y="87" class="B Label" style="text-anchor:start">B</text></g><g><rect id="ButtonC" width="11" height="35" x="28" y="54" class="C Button" rx=".5" ry=".5"/><path id="LeaderC" d="M 26 72 L 25 72 L 25 35 L 65 35 L 65 42 L 78 42" class="C Leader"/><text id="LabelC" x="80" y="42" class="C Label" style="text-anchor:start">C</text></g><g><rect id="ButtonD" width="23" height="11" x="28" y="90" class="D Button" rx=".5" ry=".5"/><path id="LeaderD" d="M 53 96 L 65 96 L 65 102 L 78 102" class="D Leader"/><text id="LabelD" x="80" y="102" class="D Label" style="text-anchor:start">D</text></g><g><rect id="ButtonE" width="11" height="17" x="352" y="54" class="E Button" rx=".5" ry=".5"/><path id="LeaderE" d="M 350 63 L 338 63 L 338 72 L 324 72" class="E Leader"/><text id="LabelE" x="322" y="72" class="E Label" style="text-anchor:end">E</text></g><g><rect id="ButtonF" width="11" height="17" x="352" y="72" class="F Button" rx=".5" ry=".5"/><circle id="DotF1" cx="357.5" cy="77.5" r=".5"/><circle id="DotF2" cx="357.5" cy="80.5" r=".5"/><circle id="DotF3" cx="357.5" cy="83.5" r=".5"/><path id="LeaderF" d="M 350 81 L 338 81 L 338 87 L 324 87" class="F Leader"/><text id="LabelF" x="322" y="87" class="F Label" style="text-anchor:end">F</text></g><g><rect id="ButtonG" width="11" height="35" x="364" y="54" class="G Button" rx=".5" ry=".5"/><path id="LeaderG" d="M 377 72 L 378 72 L 378 35 L 338 35 L 338 42 L 324 42" class="G Leader"/><text id="LabelG" x="322" y="42" class="G Label" style="text-anchor:end">G</text></g><g><rect id="ButtonH" width="23" height="11" x="352" y="90" class="H Button" rx=".5" ry=".5"/><path id="LeaderH" d="M 350 96 L 338 96 L 338 102 L 324 102" class="H Leader"/><text id="LabelH" x="322" y="102" class="H Label" style="text-anchor:end">H</text></g><g><rect id="ButtonI" width="23" height="11" x="28" y="42" class="I Button" rx=".5" ry=".5"/><circle id="DotI1" cx="36.5" cy="47.5" r=".5"/><circle id="DotI2" cx="39.5" cy="47.5" r=".5"/><circle id="DotI3" cx="42.5" cy="47.5" r=".5"/><path id="LeaderI" d="M 53 48 L 65 48 L 65 57 L 78 57" class="I Leader"/><text id="LabelI" x="80" y="57" class="I Label" style="text-anchor:start">I</text></g><g><rect id="ButtonJ" width="23" height="11" x="352" y="42" class="J Button" rx=".5" ry=".5"/><circle id="DotJ1" cx="360.5" cy="47.5" r=".5"/><circle id="DotJ2" cx="363.5" cy="47.5" r=".5"/><circle id="DotJ3" cx="366.5" cy="47.5" r=".5"/><path id="LeaderJ" d="M 350 48 L 338 48 L 338 57 L 324 57" class="J Leader"/><text id="LabelJ" x="322" y="57" class="J Label" style="text-anchor:end">J</text></g><g><rect id="Strip" width="12" height="60" x="10" y="41" class="Strip TouchStrip" rx="1" ry="1"/><path id="LeaderStripUp" d="M 16 39 L 16 27 L 78 27" class="StripUp Strip Leader"/><text id="LabelStripUp" x="80" y="27" class="StripUp Strip Label" style="text-anchor:start">Up</text><path id="LeaderStripDown" d="M 16 103 L 16 117 L 78 117" class="StripDown Strip Leader"/><text id="LabelStripDown" x="80" y="117" class="StripDown Strip Label" style="text-anchor:start">Down</text></g><g><rect id="Strip2" width="12" height="60" x="382" y="41" class="Strip2 TouchStrip" rx="1" ry="1"/><path id="LeaderStrip2Up" d="M 388 39 L 388 27 L 325 27" class="Strip2Up Strip2 Leader"/><text id="LabelStrip2Up" x="322" y="27" class="Strip2Up Strip2 Label" style="text-anchor:end">Up</text><path id="LeaderStrip2Down" d="M 388 103 L 388 117 L 325 117" class="Strip2Down Strip2 Leader"/><text id="LabelStrip2Down" x="322" y="117" class="Strip2Down Strip2 Label" style="text-anchor:end">Down</text></g></svg>