<svg xmlns="http://www.w3.org/2000/svg" id="cintiq-13hd" width="380" height="250" version="1.1" style="color:#000;stroke:#7f7f7f;fill:none;stroke-width:.25;font-size:8"><title id="title">Wacom Cintiq 13HD</title><circle id="Ring" cx="34" cy="125" r="19.5" class="Ring" style="fill:none"/><circle id="InnerRing" cx="34" cy="125" r="7" class="Inner Ring"/><g><rect id="ButtonB" width="20" height="14.5" x="24" y="59.5" class="B Button" rx="2" ry="2"/><path id="LeaderB" d="m 46.0 68.0 4.0 0.0" class="B Leader"/><text id="LabelB" x="52" y="68" class="B Label" style="text-anchor:start">B</text><circle id="DotB" cx="34" cy="67" r="1"/></g><g><path id="LeaderC" d="m 46.0 86.5 4.0 0.0" class="C Leader"/><text id="LabelC" x="52" y="86.5" class="C Label" style="text-anchor:start">C</text><rect id="ButtonC" width="20" height="14.5" x="24" y="79" class="C Button" rx="2" ry="2"/><rect id="SquareC" width="8" height="8" x="30" y="82.5" rx="1" ry="1"/></g><g><path id="LeaderH" d="m 19.5 128.5 0.0 7.5 41.0 0.0" class="H Leader"/><text id="LabelH" x="62" y="136" class="H Label" style="text-anchor:start">H</text><circle id="ButtonH" cx="17.5" cy="125" r="1.5" class="H Button"/></g><g><path id="LeaderG" d="m 34.0 105.0 0.0 -2.0 26.0 0.0" class="G Leader"/><text id="LabelG" x="62" y="103" class="G Label" style="text-anchor:start">G</text><circle id="ButtonG" cx="34" cy="108.5" r="1.5" class="G Button"/></g><g><path id="LeaderF" d="m 56.0 125.0 4.0 0.0" class="F Leader"/><text id="LabelF" x="62" y="125" class="F Label" style="text-anchor:start">F</text><circle id="ButtonF" cx="50.5" cy="125" r="1.5" class="F Button"/></g><g><path id="LeaderI" d="m 34.0 145.0 0.0 2.0 26.0 0.0" class="I Leader"/><text id="LabelI" x="62" y="147" class="I Label" style="text-anchor:start">I</text><circle id="ButtonI" cx="34" cy="141.5" r="1.5" class="I Button"/></g><g><rect id="ButtonD" width="20" height="14.5" x="23.5" y="156.5" class="D Button" rx="2" ry="2"/><path id="LeaderD" d="m 45.5 165.0 4.0 0.0" class="D Leader"/><text id="LabelD" x="51.5" y="165" class="D Label" style="text-anchor:start">D</text><rect id="DotD" width="8" height="8" x="30" y="160" rx="1" ry="1"/></g><g><rect id="ButtonA" width="8" height="8" x="30" y="121" class="A Button" rx="1" ry="1"/><path id="LeaderA" d="m 34.0 116.5 0.0 -3.0 26.0 0.0" class="A Leader"/><text id="LabelA" x="62" y="113.5" class="A Label" style="text-anchor:start">A</text></g><g><path id="LeaderE" d="m 45.5 183.0 4.0 0.0" class="E Leader"/><text id="LabelE" x="51.5" y="183" class="E Label" style="text-anchor:start">E</text><rect id="ButtonE" width="20" height="14.5" x="24" y="176" class="E Button" rx="2" ry="2"/><circle id="DotE" cx="34" cy="183" r="1"/></g></svg>