<svg xmlns="http://www.w3.org/2000/svg" style="color:#000;stroke:#7f7f7f;fill:none;stroke-width:.25;font-size:8" id="cintiq-22hd" width="650" height="400" version="1.1"><title id="title">Wacom Cintiq 22HD</title><g><rect id="ButtonB" width="20" height="12" x="24" y="139" class="B Button" rx=".5" ry=".5"/><path id="LeaderB" d="M 46 145 l 5 0 l 0 -49 l 20 0" class="B Leader"/><text id="LabelB" x="73" y="96" class="B Label" style="text-anchor:start">B</text></g><g><rect id="ButtonC" width="20" height="12" x="24" y="152" class="C Button" rx=".5" ry=".5"/><path id="LeaderC" d="M 46 158 l 10 0 l 0 -36 l 15 0" class="C Leader"/><text id="LabelC" x="73" y="122" class="C Label" style="text-anchor:start">C</text></g><g><rect id="ButtonD" width="20" height="12" x="24" y="165" class="D Button" rx=".5" ry=".5"/><path id="LeaderD" d="M 46 171 l 15 0 l 0 -23 l 10 0" class="D Leader"/><text id="LabelD" x="73" y="148" class="D Label" style="text-anchor:start">D</text></g><g><rect id="ButtonE" width="20" height="12" x="24" y="178" class="E Button" rx=".5" ry=".5"/><path id="LeaderE" d="M 46 184 l 20 0 l 0 -10 l 5 0" class="E Leader"/><text id="LabelE" x="73" y="174" class="E Label" style="text-anchor:start">E</text></g><g><rect id="ButtonA" width="18" height="10" x="25" y="195" class="A ModeSwitch Button" rx="3" ry="3"/><path id="LeaderA" d="M 46 200 l 25 0" class="A ModeSwitch Leader"/><text id="LabelA" x="73" y="200" class="A ModeSwitch Label" style="text-anchor:start">A</text></g><g><rect id="ButtonF" width="20" height="12" x="24" y="210" class="F Button" rx=".5" ry=".5"/><path id="LeaderF" d="M 46 216 l 20 0 l 0 10 l 5 0" class="F Leader"/><text id="LabelF" x="73" y="226" class="F Label" style="text-anchor:start">F</text></g><g><rect id="ButtonG" width="20" height="12" x="24" y="223" class="G Button" rx=".5" ry=".5"/><path id="LeaderG" d="M 46 230 l 15 0 l 0 23 l 10 0" class="G Leader"/><text id="LabelG" x="73" y="252" class="G Label" style="text-anchor:start">G</text></g><g><rect id="ButtonH" width="20" height="12" x="24" y="236" class="H Button" rx=".5" ry=".5"/><path id="LeaderH" d="M 46 242 l 10 0 l 0 36 l 15 0" class="H Leader"/><text id="LabelH" x="73" y="278" class="H Label" style="text-anchor:start">H</text></g><g><rect id="ButtonI" width="20" height="12" x="24" y="249" class="I Button" rx=".5" ry=".5"/><path id="LeaderI" d="M 46 255 l 5 0 l 0 49 l 20 0" class="I Leader"/><text id="LabelI" x="73" y="304" class="I Label" style="text-anchor:start">I</text></g><g><rect id="ButtonK" width="20" height="12" x="606" y="139" class="K Button" rx=".5" ry=".5"/><path id="LeaderK" d="M 604 145 l -5 0 l 0 -49 l -20 0" class="K Leader"/><text id="LabelK" x="577" y="96" class="K Label" style="text-anchor:end">K</text></g><g><rect id="ButtonL" width="20" height="12" x="606" y="152" class="L Button" rx=".5" ry=".5"/><path id="LeaderL" d="M 604 158 l -10 0 l 0 -36 l -15 0" class="L Leader"/><text id="LabelL" x="577" y="122" class="L Label" style="text-anchor:end">L</text></g><g><rect id="ButtonM" width="20" height="12" x="606" y="165" class="M Button" rx=".5" ry=".5"/><path id="LeaderM" d="M 604 171 l -15 0 l 0 -23 l -10 0" class="M Leader"/><text id="LabelM" x="577" y="148" class="M Label" style="text-anchor:end">M</text></g><g><rect id="ButtonN" width="20" height="12" x="606" y="178" class="N Button" rx=".5" ry=".5"/><path id="LeaderN" d="M 604 184 l -20 0 l 0 -10 l -5 0" class="N Leader"/><text id="LabelN" x="577" y="174" class="N Label" style="text-anchor:end">N</text></g><g><rect id="ButtonJ" width="18" height="10" x="607" y="195" class="J ModeSwitch Button" rx="3" ry="3"/><path id="LeaderJ" d="M 604 200 l -25 0" class="J ModeSwitch Leader"/><text id="LabelJ" x="577" y="200" class="J ModeSwitch Label" style="text-anchor:end">J</text></g><g><rect id="ButtonO" width="20" height="12" x="606" y="210" class="O Button" rx=".5" ry=".5"/><path id="LeaderO" d="M 604 216 l -20 0 l 0 10 l -5 0" class="O Leader"/><text id="LabelO" x="577" y="226" class="O Label" style="text-anchor:end">O</text></g><g><rect id="ButtonP" width="20" height="12" x="606" y="223" class="P Button" rx=".5" ry=".5"/><path id="LeaderP" d="M 604 230 l -15 0 l 0 23 l -10 0" class="P Leader"/><text id="LabelP" x="577" y="252" class="P Label" style="text-anchor:end">P</text></g><g><rect id="ButtonQ" width="20" height="12" x="606" y="236" class="Q Button" rx=".5" ry=".5"/><path id="LeaderQ" d="M 604 242 l -10 0 l 0 36 l -15 0" class="Q Leader"/><text id="LabelQ" x="577" y="278" class="Q Label" style="text-anchor:end">Q</text></g><g><rect id="ButtonR" width="20" height="12" x="606" y="249" class="R Button" rx=".5" ry=".5"/><path id="LeaderR" d="M 604 255 l -5 0 l 0 49 l -20 0" class="R Leader"/><text id="LabelR" x="577" y="304" class="R Label" style="text-anchor:end">R</text></g><g><rect id="Strip" width="12" height="60" x="5" y="170" class="Strip TouchStrip" rx="1" ry="1"/><path id="LeaderStripUp" d="M 11 168 l 0 -98 l 60 0" class="StripUp Strip Leader"/><text id="LabelStripUp" x="73" y="70" class="StripUp Strip Label" style="text-anchor:start">Up</text><path id="LeaderStripDown" d="M 11 232 l 0 98 l 60 0" class="StripDown Strip Leader"/><text id="LabelStripDown" x="73" y="330" class="StripDown Strip Label" style="text-anchor:start">Down</text></g><g><rect id="Strip2" width="12" height="60" x="633" y="170" class="Strip2 TouchStrip" rx="1" ry="1"/><path id="LeaderStrip2Up" d="M 639 168 l 0 -98 l -60 0" class="Strip2Up Strip2 Leader"/><text id="LabelStrip2Up" x="577" y="70" class="Strip2Up Strip2 Label" style="text-anchor:end">Up</text><path id="LeaderStrip2Down" d="M 639 232 l 0 98 l -60 0" class="Strip2Down Strip2 Leader"/><text id="LabelStrip2Down" x="577" y="330" class="Strip2Down Strip2 Label" style="text-anchor:end">Down</text></g></svg>