<svg xmlns="http://www.w3.org/2000/svg" id="cintiq-companion-2" width="380" height="250" version="1.1" style="color:#000;stroke:#7f7f7f;fill:none;stroke-width:.25;font-size:8"><title id="title">Wacom Cintiq Companion 2</title><circle id="Ring" cx="34" cy="125" r="19.5" class="Ring" style="fill:none"/><circle id="InnerRing" cx="34" cy="125" r="7" class="Inner Ring"/><g><rect id="ButtonB" width="20" height="14.5" x="24" y="40" class="B Button" rx="2" ry="2"/><path id="LeaderB" d="m 46.0 47.0 4.0 0.0" class="B Leader"/><text id="LabelB" x="52" y="47" class="B Label" style="text-anchor:start">B</text><rect id="SquareA" width="16" height="8" x="26" y="41" rx="1" ry="1"/></g><g><rect id="ButtonC" width="20" height="14.5" x="24" y="59.5" class="C Button" rx="2" ry="2"/><path id="LeaderC" d="m 46.0 68.0 4.0 0.0" class="C Leader"/><text id="LabelC" x="52" y="68" class="C Label" style="text-anchor:start">C</text><circle id="DotC" cx="34" cy="67" r="1"/></g><g><path id="LeaderD" d="m 46.0 86.5 4.0 0.0" class="D Leader"/><text id="LabelD" x="52" y="86.5" class="D Label" style="text-anchor:start">D</text><rect id="ButtonD" width="20" height="14.5" x="24" y="79" class="D Button" rx="2" ry="2"/></g><g><path id="LeaderJ" d="m 17.5 128.5 0.0 7.5 41.0 0.0" class="J Leader"/><text id="LabelJ" x="62" y="136" class="J Label" style="text-anchor:start">J</text><circle id="ButtonJ" cx="17.5" cy="125" r="1.5" class="J Button"/></g><g><path id="LeaderI" d="m 34.0 105.0 0.0 -2.0 26.0 0.0" class="I Leader"/><text id="LabelI" x="62" y="103" class="I Label" style="text-anchor:start">I</text><circle id="ButtonI" cx="34" cy="108.5" r="1.5" class="I Button"/></g><g><path id="LeaderH" d="m 56.0 125.0 4.0 0.0" class="H Leader"/><text id="LabelH" x="62" y="125" class="H Label" style="text-anchor:start">H</text><circle id="ButtonH" cx="50.5" cy="125" r="1.5" class="H Button"/></g><g><path id="LeaderK" d="m 34.0 145.0 0.0 2.0 26.0 0.0" class="K Leader"/><text id="LabelK" x="62" y="147" class="K Label" style="text-anchor:start">K</text><circle id="ButtonK" cx="34" cy="141.5" r="1.5" class="K Button"/></g><g><rect id="ButtonA" width="8" height="8" x="30" y="121" class="A Button" rx="1" ry="1"/><path id="LeaderA" d="m 34.0 116.5 0.0 -3.0 26.0 0.0" class="A Leader"/><text id="LabelA" x="62" y="113.5" class="A Label" style="text-anchor:start">A</text></g><g><rect id="ButtonE" width="20" height="14.5" x="24" y="156.5" class="E Button" rx="2" ry="2"/><path id="LeaderE" d="m 45.5 165.0 4.0 0.0" class="E Leader"/><text id="LabelE" x="52" y="165" class="E Label" style="text-anchor:start">E</text></g><g><path id="LeaderF" d="m 45.5 183.0 4.0 0.0" class="F Leader"/><text id="LabelF" x="52" y="183" class="F Label" style="text-anchor:start">F</text><rect id="ButtonF" width="20" height="14.5" x="24" y="176" class="F Button" rx="2" ry="2"/><circle id="DotF" cx="34" cy="183" r="1"/></g><g><rect id="ButtonG" width="20" height="14.5" x="24" y="195" class="G Button" rx="2" ry="2"/><path id="LeaderG" d="m 46 203.0 4.0 0.0" class="G Leader"/><text id="LabelG" x="52" y="203" class="G Label" style="text-anchor:start">G</text><rect id="DotG" width="16" height="8" x="26" y="200.5" rx="1" ry="1"/></g></svg>