<svg xmlns="http://www.w3.org/2000/svg" style="color:#000;stroke:#7f7f7f;fill:none;stroke-width:.25;font-size:8" id="cintiq-21ux2" width="560" height="420" version="1.1"><title id="title">Wacom Cintiq 21UX2</title><g><rect id="ButtonB" width="20" height="12" x="24" y="144" class="B Button" rx=".5" ry=".5"/><path id="LeaderB" d="M 46 150 l 5 0 l 0 -49 l 20 0" class="B Leader"/><text id="LabelB" x="73" y="101" class="B Label" style="text-anchor:start">B</text></g><g><rect id="ButtonC" width="20" height="12" x="24" y="157" class="C Button" rx=".5" ry=".5"/><path id="LeaderC" d="M 46 163 l 10 0 l 0 -36 l 15 0" class="C Leader"/><text id="LabelC" x="73" y="127" class="C Label" style="text-anchor:start">C</text></g><g><rect id="ButtonD" width="20" height="12" x="24" y="170" class="D Button" rx=".5" ry=".5"/><path id="LeaderD" d="M 46 176 l 15 0 l 0 -23 l 10 0" class="D Leader"/><text id="LabelD" x="73" y="153" class="D Label" style="text-anchor:start">D</text></g><g><rect id="ButtonE" width="20" height="12" x="24" y="183" class="E Button" rx=".5" ry=".5"/><path id="LeaderE" d="M 46 189 l 20 0 l 0 -10 l 5 0" class="E Leader"/><text id="LabelE" x="73" y="179" class="E Label" style="text-anchor:start">E</text></g><g><circle id="ButtonA" cx="34" cy="210" r="9" class="A ModeSwitch Button"/><path id="LeaderA" d="M 46 210 l 25 0" class="A ModeSwitch Leader"/><text id="LabelA" x="73" y="210" class="A ModeSwitch Label" style="text-anchor:start">A</text></g><g><rect id="ButtonF" width="20" height="12" x="24" y="225" class="F Button" rx=".5" ry=".5"/><path id="LeaderF" d="M 46 231 l 20 0 l 0 10 l 5 0" class="F Leader"/><text id="LabelF" x="73" y="241" class="F Label" style="text-anchor:start">F</text></g><g><rect id="ButtonG" width="20" height="12" x="24" y="238" class="G Button" rx=".5" ry=".5"/><path id="LeaderG" d="M 46 245 l 15 0 l 0 23 l 10 0" class="G Leader"/><text id="LabelG" x="73" y="267" class="G Label" style="text-anchor:start">G</text></g><g><rect id="ButtonH" width="20" height="12" x="24" y="251" class="H Button" rx=".5" ry=".5"/><path id="LeaderH" d="M 46 257 l 10 0 l 0 36 l 15 0" class="H Leader"/><text id="LabelH" x="73" y="293" class="H Label" style="text-anchor:start">H</text></g><g><rect id="ButtonI" width="20" height="12" x="24" y="264" class="I Button" rx=".5" ry=".5"/><path id="LeaderI" d="M 46 270 l 5 0 l 0 49 l 20 0" class="I Leader"/><text id="LabelI" x="73" y="319" class="I Label" style="text-anchor:start">I</text></g><g><rect id="ButtonK" width="20" height="12" x="516" y="144" class="K Button" rx=".5" ry=".5"/><path id="LeaderK" d="M 514 150 l -5 0 l 0 -49 l -20 0" class="K Leader"/><text id="LabelK" x="487" y="101" class="K Label" style="text-anchor:end">K</text></g><g><rect id="ButtonL" width="20" height="12" x="516" y="157" class="L Button" rx=".5" ry=".5"/><path id="LeaderL" d="M 514 163 l -10 0 l 0 -36 l -15 0" class="L Leader"/><text id="LabelL" x="487" y="127" class="L Label" style="text-anchor:end">L</text></g><g><rect id="ButtonM" width="20" height="12" x="516" y="170" class="M Button" rx=".5" ry=".5"/><path id="LeaderM" d="M 514 176 l -15 0 l 0 -23 l -10 0" class="M Leader"/><text id="LabelM" x="487" y="153" class="M Label" style="text-anchor:end">M</text></g><g><rect id="ButtonN" width="20" height="12" x="516" y="183" class="N Button" rx=".5" ry=".5"/><path id="LeaderN" d="M 514 189 l -20 0 l 0 -10 l -5 0" class="N Leader"/><text id="LabelN" x="487" y="179" class="N Label" style="text-anchor:end">N</text></g><g><circle id="ButtonJ" cx="526" cy="210" r="9" class="J ModeSwitch Button"/><path id="LeaderJ" d="M 514 210 l -25 0" class="J ModeSwitch Leader"/><text id="LabelJ" x="487" y="210" class="J ModeSwitch Label" style="text-anchor:end">J</text></g><g><rect id="ButtonO" width="20" height="12" x="516" y="225" class="O Button" rx=".5" ry=".5"/><path id="LeaderO" d="M 514 231 l -20 0 l 0 10 l -5 0" class="O Leader"/><text id="LabelO" x="487" y="241" class="O Label" style="text-anchor:end">O</text></g><g><rect id="ButtonP" width="20" height="12" x="516" y="238" class="P Button" rx=".5" ry=".5"/><path id="LeaderP" d="M 514 245 l -15 0 l 0 23 l -10 0" class="P Leader"/><text id="LabelP" x="487" y="267" class="P Label" style="text-anchor:end">P</text></g><g><rect id="ButtonQ" width="20" height="12" x="516" y="251" class="Q Button" rx=".5" ry=".5"/><path id="LeaderQ" d="M 514 257 l -10 0 l 0 36 l -15 0" class="Q Leader"/><text id="LabelQ" x="487" y="293" class="Q Label" style="text-anchor:end">Q</text></g><g><rect id="ButtonR" width="20" height="12" x="516" y="264" class="R Button" rx=".5" ry=".5"/><path id="LeaderR" d="M 514 270 l -5 0 l 0 49 l -20 0" class="R Leader"/><text id="LabelR" x="487" y="319" class="R Label" style="text-anchor:end">R</text></g><g><rect id="Strip" width="12" height="60" x="5" y="180" class="Strip TouchStrip" rx="1" ry="1"/><path id="LeaderStripUp" d="M 11 178 l 0 -103 l 60 0" class="StripUp Strip Leader"/><text id="LabelStripUp" x="73" y="75" class="StripUp Strip Label" style="text-anchor:start">Up</text><path id="LeaderStripDown" d="M 11 242 l 0 103 l 60 0" class="StripDown Strip Leader"/><text id="LabelStripDown" x="73" y="345" class="StripDown Strip Label" style="text-anchor:start">Down</text></g><g><rect id="Strip2" width="12" height="60" x="543" y="180" class="Strip2 TouchStrip" rx="1" ry="1"/><path id="LeaderStrip2Up" d="M 549 178 l 0 -103 l -60 0" class="Strip2Up Strip2 Leader"/><text id="LabelStrip2Up" x="487" y="75" class="Strip2Up Strip2 Label" style="text-anchor:end">Up</text><path id="LeaderStrip2Down" d="M 549 242 l 0 103 l -60 0" class="Strip2Down Strip2 Leader"/><text id="LabelStrip2Down" x="487" y="345" class="Strip2Down Strip2 Label" style="text-anchor:end">Down</text></g></svg>