<svg xmlns="http://www.w3.org/2000/svg" style="color:#000;stroke:#7f7f7f;fill:none;stroke-width:.25;font-size:8" id="cintiq-24hd" width="770" height="464" version="1.1"><title id="title">Wacom Cintq 24HD</title><g><rect id="ButtonA" width="12" height="10" x="10" y="155" class="A ModeSwitch Button" rx="3" ry="3"/><rect id="DotA" width="4" height="1" x="14" y="159.5" rx="1" ry="1"/><path id="LeaderA" d="M 8 160 l -1 0 l 0 -60 l 91 0" class="A ModeSwitch Leader"/><text id="LabelA" x="100" y="100" class="A ModeSwitch Label" style="text-anchor:start">A</text></g><g><rect id="ButtonB" width="12" height="10" x="10" y="170" class="B ModeSwitch Button" rx="3" ry="3"/><rect id="DotB" width="4" height="1" x="14" y="174.5" rx="1" ry="1"/><path id="LeaderB" d="M 24 175 l 1 0 l 0 -50 l 73 0" class="B ModeSwitch Leader"/><text id="LabelB" x="100" y="125" class="B ModeSwitch Label" style="text-anchor:start">B</text></g><g><rect id="ButtonC" width="12" height="10" x="10" y="185" class="C ModeSwitch Button" rx="3" ry="3"/><rect id="DotC" width="4" height="1" x="14" y="189.5" rx="1" ry="1"/><path id="LeaderC" d="M 8 190 l -1 0 l 0 10 l 91 0" class="C ModeSwitch Leader"/><text id="LabelC" x="100" y="200" class="C ModeSwitch Label" style="text-anchor:start">C</text></g><g><rect id="ButtonD" width="12" height="46" x="10" y="205" class="D Button" rx="3" ry="3"/><rect id="DotD" width="1" height="6" x="15.5" y="225" rx="1" ry="1"/><path id="LeaderD" d="M 8 228 l -1 0 l 0 97 l 91 0" class="D Leader"/><text id="LabelD" x="100" y="325" class="D Label" style="text-anchor:start">D</text></g><g><rect id="ButtonE" width="12" height="46" x="26" y="205" class="E Button" rx="3" ry="3"/><path id="LeaderE" d="M 32 253 l 0 47 l 66 0" class="E Leader"/><text id="LabelE" x="100" y="300" class="E Label" style="text-anchor:start">E</text></g><g><rect id="ButtonF" width="30" height="12" x="42" y="205" class="F Button" rx="3" ry="3"/><path id="LeaderF" d="M 74 211 l 15 0 l 0 14 l 9 0" class="F Leader"/><text id="LabelF" x="100" y="225" class="F Label" style="text-anchor:start">F</text></g><g><rect id="ButtonG" width="30" height="12" x="42" y="222" class="G Button" rx="3" ry="3"/><rect id="DotG" width="6" height="1" x="54" y="227.5" rx="1" ry="1"/><path id="LeaderG" d="M 74 228 l 11 0 l 0 22 l 13 0" class="G Leader"/><text id="LabelG" x="100" y="250" class="G Label" style="text-anchor:start">G</text></g><g><rect id="ButtonH" width="30" height="12" x="42" y="239" class="H Button" rx="3" ry="3"/><path id="LeaderH" d="M 74 245 l 6 0 l 0 30 l 18 0" class="H Leader"/><text id="LabelH" x="100" y="275" class="H Label" style="text-anchor:start">H</text></g><g><circle id="Ring" cx="50" cy="175" r="19.5" class="Ring TouchRing"/><circle id="DotRing" cx="50" cy="175" r="9.5"/><path id="LeaderRingCCW" d="M 50 155 l 0 -5 l 48 0" class="RingCCW Ring Leader"/><text id="LabelRingCCW" x="100" y="150" class="RingCCW Ring Label" style="text-anchor:start">CCW</text><path id="RingCCW" d="M 47 161 l 3 -1.5 l 0 1 a 7.5 7.5 0 0 1 5 1.5 a 6.5 6.5 0 0 0 -5 -0.5 l 0 1 z" class="RingCCW Button"/><path id="LeaderRingCW" d="M 50 195 l 0 2 l 34 0 l 0 -22 l 14 0" class="RingCW Ring Leader"/><text id="LabelRingCW" x="100" y="175" class="RingCW Ring Label" style="text-anchor:start">CW</text><path id="RingCW" d="M 47 189 l 3 -1.5 l 0 1 a 7.5 7.5 0 0 0 5 -1 a 6.5 6.5 0 0 1 -5 2 l 0 1 z" class="RingCW Button"/></g><g><rect id="ButtonI" width="12" height="10" x="748" y="155" class="I ModeSwitch Button" rx="3" ry="3"/><rect id="DotI" width="4" height="1" x="752" y="159.5" rx="1" ry="1"/><path id="LeaderI" d="M 762 160 l 1 0 l 0 -60 l -91 0" class="I ModeSwitch Leader"/><text id="LabelI" x="670" y="100" class="I ModeSwitch Label" style="text-anchor:end">I</text></g><g><rect id="ButtonJ" width="12" height="10" x="748" y="170" class="J ModeSwitch Button" rx="3" ry="3"/><rect id="DotJ" width="4" height="1" x="752" y="174.5" rx="1" ry="1"/><path id="LeaderJ" d="M 746 175 l -1 0 l 0 -50 l -73 0" class="J ModeSwitch Leader"/><text id="LabelJ" x="670" y="125" class="J ModeSwitch Label" style="text-anchor:end">J</text></g><g><rect id="ButtonK" width="12" height="10" x="748" y="185" class="K ModeSwitch Button" rx="3" ry="3"/><rect id="DotK" width="4" height="1" x="752" y="189.5" rx="1" ry="1"/><path id="LeaderK" d="M 762 190 l 1 0 l 0 10 l -91 0" class="K ModeSwitch Leader"/><text id="LabelK" x="670" y="200" class="K ModeSwitch Label" style="text-anchor:end">K</text></g><g><rect id="ButtonL" width="12" height="46" x="748" y="205" class="L Button" rx="3" ry="3"/><rect id="DotL" width="1" height="6" x="753.5" y="225" rx="1" ry="1"/><path id="LeaderL" d="M 762 228 l 1 0 l 0 97 l -91 0" class="L Leader"/><text id="LabelL" x="670" y="325" class="L Label" style="text-anchor:end">L</text></g><g><rect id="ButtonM" width="12" height="46" x="732" y="205" class="M Button" rx="3" ry="3"/><path id="LeaderM" d="M 738 253 l 0 47 l -66 0" class="M Leader"/><text id="LabelM" x="670" y="300" class="M Label" style="text-anchor:end">M</text></g><g><rect id="ButtonN" width="30" height="12" x="698" y="205" class="N Button" rx="3" ry="3"/><path id="LeaderN" d="M 696 211 l -15 0 l 0 14 l -9 0" class="N Leader"/><text id="LabelN" x="670" y="225" class="N Label" style="text-anchor:end">N</text></g><g><rect id="ButtonO" width="30" height="12" x="698" y="222" class="O Button" rx="3" ry="3"/><rect id="DotO" width="6" height="1" x="710" y="227.5" rx="1" ry="1"/><path id="LeaderO" d="M 696 228 l -11 0 l 0 22 l -13 0" class="O Leader"/><text id="LabelO" x="670" y="250" class="O Label" style="text-anchor:end">O</text></g><g><rect id="ButtonP" width="30" height="12" x="698" y="239" class="P Button" rx="3" ry="3"/><path id="LeaderP" d="M 696 245 l -6 0 l 0 30 l -18 0" class="P Leader"/><text id="LabelP" x="670" y="275" class="P Label" style="text-anchor:end">P</text></g><g><circle id="Ring2" cx="720" cy="175" r="19.5" class="Ring2 TouchRing"/><circle id="DotRing2" cx="720" cy="175" r="9.5"/><path id="LeaderRing2CCW" d="M 720 155 l 0 -5 l -48 0" class="Ring2CCW Ring2 Leader"/><text id="LabelRing2CCW" x="670" y="150" class="Ring2CCW Ring2 Label" style="text-anchor:end">CCW</text><path id="Ring2CCW" d="M 717 161 l 3 -1.5 l 0 1 a 7.5 7.5 0 0 1 5 1.5 a 6.5 6.5 0 0 0 -5 -0.5 l 0 1 z" class="Ring2CCW Button"/><path id="LeaderRing2CW" d="M 720 195 l 0 2 l -34 0 l 0 -22 l -14 0" class="Ring2CW Ring2 Leader"/><text id="LabelRing2CW" x="670" y="175" class="Ring2CW Ring2 Label" style="text-anchor:end">CW</text><path id="Ring2CW" d="M 717 189 l 3 -1.5 l 0 1 a 7.5 7.5 0 0 0 5 -1 a 6.5 6.5 0 0 1 -5 2 l 0 1 z" class="Ring2CW Button"/></g></svg>