<svg xmlns="http://www.w3.org/2000/svg" style="color:#000;stroke:#7f7f7f;fill:none;stroke-width:.25;font-size:8" id="cintiq-21ux" width="561" height="421" version="1.1"><title id="title">Wacom Cintiq 21UX</title><g><rect id="ButtonA" width="11" height="17" x="20" y="224" class="A Button" rx=".5" ry=".5"/><path id="LeaderA" d="M 33 233 l 20 0 l 0 10 l 5 0" class="A Leader"/><text id="LabelA" x="60" y="243" class="A Label" style="text-anchor:start">A</text></g><g><rect id="ButtonB" width="11" height="17" x="20" y="242" class="B Button" rx=".5" ry=".5"/><path id="LeaderB" d="M 33 251 l 16 0 l 0 13 l 9 0" class="B Leader"/><text id="LabelB" x="60" y="264" class="B Label" style="text-anchor:start">B</text></g><g><rect id="ButtonC" width="11" height="35" x="8" y="224" class="C Button" rx=".5" ry=".5"/><path id="LeaderC" d="M 6 242 l -1 0 l 0 -22 l 53 0" class="C Leader"/><text id="LabelC" x="60" y="220" class="C Label" style="text-anchor:start">C</text></g><g><rect id="ButtonD" width="23" height="11" x="8" y="260" class="D Button" rx=".5" ry=".5"/><path id="LeaderD" d="M 33 266 l 8 0 l 0 19 l 17 0" class="D Leader"/><text id="LabelD" x="60" y="285" class="D Label" style="text-anchor:start">D</text></g><g><rect id="ButtonE" width="11" height="17" x="530" y="224" class="E Button" rx=".5" ry=".5"/><path id="LeaderE" d="M 528 233 l -20 0 l 0 10 l -5 0" class="E Leader"/><text id="LabelE" x="500" y="243" class="E Label" style="text-anchor:end">E</text></g><g><rect id="ButtonF" width="11" height="17" x="530" y="242" class="F Button" rx=".5" ry=".5"/><path id="LeaderF" d="M 528 251 l -16 0 l 0 13 l -9 0" class="F Leader"/><text id="LabelF" x="500" y="264" class="F Label" style="text-anchor:end">F</text></g><g><rect id="ButtonG" width="11" height="35" x="542" y="224" class="G Button" rx=".5" ry=".5"/><path id="LeaderG" d="M 555 242 l 1 0 l 0 -22 l -53 0" class="G Leader"/><text id="LabelG" x="500" y="220" class="G Label" style="text-anchor:end">G</text></g><g><rect id="ButtonH" width="23" height="11" x="530" y="260" class="H Button" rx=".5" ry=".5"/><path id="LeaderH" d="M 528 266 l -8 0 l 0 19 l -17 0" class="H Leader"/><text id="LabelH" x="500" y="285" class="H Label" style="text-anchor:end">H</text></g><g><rect id="Strip" width="12" height="60" x="20" y="140" class="Strip TouchStrip" rx="2" ry="2"/><path id="LeaderStripUp" d="M 26 138 l 0 -2 l 16 0 l 0 7 l 16 0" class="StripUp Strip Leader"/><text id="LabelStripUp" x="60" y="143" class="StripUp Strip Label" style="text-anchor:start">Up</text><path id="LeaderStripDown" d="M 26 202 l 0 2 l 16 0 l 0 -7 l 16 0" class="StripDown Strip Leader"/><text id="LabelStripDown" x="60" y="197" class="StripDown Strip Label" style="text-anchor:start">Down</text></g><g><rect id="Strip2" width="12" height="60" x="530" y="140" class="Strip2 TouchStrip" rx="2" ry="2"/><path id="LeaderStrip2Up" d="M 536 138 l 0 -2 l -16 0 l 0 7 l -16 0" class="Strip2Up Strip2 Leader"/><text id="LabelStrip2Up" x="500" y="143" class="Strip2Up Strip2 Label" style="text-anchor:end">Up</text><path id="LeaderStrip2Down" d="M 536 202 l 0 2 l -16 0 l 0 -7 l -16 0" class="Strip2Down Strip2 Leader"/><text id="LabelStrip2Down" x="500" y="197" class="Strip2Down Strip2 Label" style="text-anchor:end">Down</text></g></svg>