<svg xmlns="http://www.w3.org/2000/svg" style="color:#000;stroke:#7f7f7f;fill:none;stroke-width:.25;font-size:8" id="cintiq-20wsx" width="547" height="367" version="1.1"><title id="title">Wacom Cintiq 20WSX</title><g><rect id="ButtonA" width="11" height="17" x="40" y="195" class="A Button" rx=".5" ry=".5"/><path id="LeaderA" d="M 53 204 l 20 0 l 0 9 l 5 0" class="A Leader"/><text id="LabelA" x="80" y="213" class="A Label" style="text-anchor:start">A</text></g><g><rect id="ButtonB" width="11" height="17" x="40" y="213" class="B Button" rx=".5" ry=".5"/><circle id="DotB1" cx="45.5" cy="218.5" r=".5"/><circle id="DotB2" cx="45.5" cy="221.5" r=".5"/><circle id="DotB3" cx="45.5" cy="224.5" r=".5"/><path id="LeaderB" d="M 53 222 l 15 0 l 0 21 l 10 0" class="B Leader"/><text id="LabelB" x="80" y="243" class="B Label" style="text-anchor:start">B</text></g><g><rect id="ButtonC" width="11" height="35" x="28" y="195" class="C Button" rx=".5" ry=".5"/><path id="LeaderC" d="M 26 213 l -1 0 l 0 -35 l 43 0 l 0 -25 l 10 0" class="C Leader"/><text id="LabelC" x="80" y="153" class="C Label" style="text-anchor:start">C</text></g><g><rect id="ButtonD" width="23" height="11" x="28" y="231" class="D Button" rx=".5" ry=".5"/><path id="LeaderD" d="M 53 237 l 10 0 l 0 36 l 15 0" class="D Leader"/><text id="LabelD" x="80" y="273" class="D Label" style="text-anchor:start">D</text></g><g><rect id="ButtonE" width="11" height="17" x="496" y="195" class="E Button" rx=".5" ry=".5"/><path id="LeaderE" d="M 494 204 l -20 0 l 0 9 l -5 0" class="E Leader"/><text id="LabelE" x="467" y="213" class="E Label" style="text-anchor:end">E</text></g><g><rect id="ButtonF" width="11" height="17" x="496" y="213" class="F Button" rx=".5" ry=".5"/><circle id="DotF1" cx="501.5" cy="218.5" r=".5"/><circle id="DotF2" cx="501.5" cy="221.5" r=".5"/><circle id="DotF3" cx="501.5" cy="224.5" r=".5"/><path id="LeaderF" d="M 494 222 l -15 0 l 0 21 l -10 0" class="F Leader"/><text id="LabelF" x="467" y="243" class="F Label" style="text-anchor:end">F</text></g><g><rect id="ButtonG" width="11" height="35" x="508" y="195" class="G Button" rx=".5" ry=".5"/><path id="LeaderG" d="M 521 213 l 1 0 l 0 -35 l -43 0 l 0 -25 l -10 0" class="G Leader"/><text id="LabelG" x="467" y="153" class="G Label" style="text-anchor:end">G</text></g><g><rect id="ButtonH" width="23" height="11" x="496" y="231" class="H Button" rx=".5" ry=".5"/><path id="LeaderH" d="M 494 237 l -10 0 l 0 36 l -15 0" class="H Leader"/><text id="LabelH" x="467" y="273" class="H Label" style="text-anchor:end">H</text></g><g><rect id="ButtonI" width="23" height="11" x="28" y="183" class="I Button" rx=".5" ry=".5"/><circle id="DotI1" cx="36.5" cy="188.5" r=".5"/><circle id="DotI2" cx="39.5" cy="188.5" r=".5"/><circle id="DotI3" cx="42.5" cy="188.5" r=".5"/><path id="LeaderI" d="M 53 189 l 20 0 l 0 -6 l 5 0" class="I Leader"/><text id="LabelI" x="80" y="183" class="I Label" style="text-anchor:start">I</text></g><g><rect id="ButtonJ" width="23" height="11" x="496" y="183" class="J Button" rx=".5" ry=".5"/><circle id="DotJ1" cx="504.5" cy="188.5" r=".5"/><circle id="DotJ2" cx="507.5" cy="188.5" r=".5"/><circle id="DotJ3" cx="510.5" cy="188.5" r=".5"/><path id="LeaderJ" d="M 494 189 l -20 0 l 0 -6 l -5 0" class="J Leader"/><text id="LabelJ" x="467" y="183" class="J Label" style="text-anchor:end">J</text></g><g><rect id="ButtonK" width="11" height="11" x="28" y="160" class="K Button" rx=".5" ry=".5"/><path id="LeaderK" d="M 26 166 l -1 0 l 0 -11 l 33 0 l 0 -63 l 20 0" class="K Leader"/><text id="LabelK" x="80" y="93" class="K Label" style="text-anchor:start">K</text></g><g><rect id="ButtonL" width="11" height="11" x="40" y="160" class="L Button" rx=".5" ry=".5"/><path id="LeaderL" d="M 53 166 l 10 0 l 0 -43 l 15 0" class="L Leader"/><text id="LabelL" x="80" y="123" class="L Label" style="text-anchor:start">L</text></g><g><rect id="ButtonM" width="11" height="11" x="496" y="160" class="M Button" rx=".5" ry=".5"/><path id="LeaderM" d="M 494 166 l -10 0 l 0 -43 l -15 0" class="M Leader"/><text id="LabelM" x="467" y="123" class="M Label" style="text-anchor:end">M</text></g><g><rect id="ButtonN" width="11" height="11" x="508" y="160" class="N Button" rx=".5" ry=".5"/><path id="LeaderN" d="M 521 166 l 1 0 l 0 -11 l -33 0 l 0 -63 l -20 0" class="N Leader"/><text id="LabelN" x="467" y="93" class="N Label" style="text-anchor:end">N</text></g><g><rect id="Strip" width="12" height="60" x="5" y="153" class="Strip TouchStrip" rx="1" ry="1"/><path id="LeaderStripUp" d="M 11 151 l 0 -88 l 67 0" class="StripUp Strip Leader"/><text id="LabelStripUp" x="80" y="63" class="StripUp Strip Label" style="text-anchor:start">Up</text><path id="LeaderStripDown" d="M 11 215 l 0 88 l 67 0" class="StripDown Strip Leader"/><text id="LabelStripDown" x="80" y="303" class="StripDown Strip Label" style="text-anchor:start">Down</text></g><g><rect id="Strip2" width="12" height="60" x="530" y="153" class="Strip2 TouchStrip" rx="1" ry="1"/><path id="LeaderStrip2Up" d="M 536 151 l 0 -88 l -67 0" class="Strip2Up Strip2 Leader"/><text id="LabelStrip2Up" x="467" y="63" class="Strip2Up Strip2 Label" style="text-anchor:end">Up</text><path id="LeaderStrip2Down" d="M 536 215 l 0 88 l -67 0" class="Strip2Down Strip2 Leader"/><text id="LabelStrip2Down" x="467" y="303" class="Strip2Down Strip2 Label" style="text-anchor:end">Down</text></g></svg>