<svg xmlns="http://www.w3.org/2000/svg" id="dth-2242" width="650" height="400" version="1.1" style="color:#000;stroke:#7f7f7f;fill:none;stroke-width:.25;font-size:8"><title id="title">Wacom DTH-2242</title><g><rect id="ButtonA" width="20" height="11" x="33.5" y="22" class="A Button" rx="2" ry="2.5"/><path id="LeaderA" d="M 35.0 34.5 35.0 40.068811l 1.5 0.0" class="A Leader"/><text id="LabelA" x="38" y="43" class="A Label" style="text-anchor:start">A</text></g><g><rect id="ButtonB" width="20" height="11" x="244.5" y="21.5" class="B Button" rx="2" ry="2.5"/><path id="LeaderB" d="M 246.5 34.5 246.5 64.354001l 1.5 0.0" class="B Leader"/><text id="LabelB" x="249.5" y="67" class="B Label" style="text-anchor:start">B</text></g><g><rect id="ButtonC" width="20" height="11" x="276.5" y="21.5" class="C Button" rx="2" ry="2.5"/><path id="LeaderC" d="M 278.0 34.5 278.0 55.458668l 1.5 0.0" class="C Leader"/><text id="LabelC" x="281" y="58.5" class="C Label" style="text-anchor:start">C</text></g><g><rect id="ButtonD" width="20" height="11" x="308.5" y="21.5" class="D Button" rx="2" ry="2.5"/><path id="LeaderD" d="M 310.5 34.5 310.5 47.617719l 1.5 0.0" class="D Leader"/><text id="LabelD" x="313.5" y="50.5" class="D Label" style="text-anchor:start">D</text></g><g><rect id="ButtonE" width="20" height="11" x="340.5" y="21.5" class="E Button" rx="2" ry="2.5"/><path id="LeaderE" d="M 342.0 34.5 342.0 39.99695l 1.5 0.0" class="E Leader"/><text id="LabelE" x="345" y="42.5" class="E Label" style="text-anchor:start">E</text></g><g><rect id="ButtonF" width="20" height="11" x="372.5" y="21.5" class="F Button" rx="2" ry="2.5"/><path id="LeaderF" d="m 394.5 27.0 4.0 0.0" class="F Leader"/><text id="LabelF" x="400.5" y="30" class="F Label" style="text-anchor:start">F</text></g></svg>