<svg xmlns="http://www.w3.org/2000/svg" style="color:#000;stroke:#7f7f7f;fill:none;stroke-width:.25;font-size:8" id="dti-520" width="344" height="300" version="1.1"><title id="title">Wacom DTI520UB/L</title><g><circle id="ButtonA" cx="152" cy="280" r="6" class="A Button"/><path id="LeaderA" d="M 100 210 l 10 0 m -5 0 l 47 47 l 0 14" class="A Leader"/><text id="LabelA" x="105" y="200" class="A Label" style="text-anchor:middle">A</text></g><g><circle id="ButtonB" cx="132" cy="280" r="6" class="B Button"/><circle id="ButtonB" cx="212" cy="280" r="6" class="B Button"/><path id="LeaderB" d="M 132 288 l 0 8 M 212 288 l 0 8 l -100 0 l -62 -62 l 0 -24 m -5 0 l 10 0" class="B Leader"/><text id="LabelB" x="50" y="200" class="B Label" style="text-anchor:middle">B</text></g><g><circle id="ButtonC" cx="192" cy="280" r="6" class="C Button"/><path id="LeaderC" d="M 198 274 l 40 -40 l 56 0 l 0 -24 m -5 0 l 10 0" class="C Leader"/><text id="LabelC" x="294" y="200" class="C Label" style="text-anchor:middle">C</text></g><g><circle id="ButtonD" cx="172" cy="273" r="6" class="D Button"/><path id="LeaderD" d="M 167 210 l 10 0 m -5 0 l 0 54" class="D Leader"/><text id="LabelD" x="172" y="200" class="D Label" style="text-anchor:middle">D</text></g><g><circle id="ButtonE" cx="172" cy="287" r="6" class="E Button"/><path id="LeaderE" d="M 178 281 l 61 -61 l 0 -10 m -5 0 l 10 0" class="E Leader"/><text id="LabelE" x="239" y="200" class="E Label" style="text-anchor:middle">E</text></g><g><circle id="ButtonF" cx="138" cy="10" r="4" class="F Button"/><path id="LeaderF" d="M 132 10 l -82 0 l 0 80 m -5 0 l 10 0" class="F Leader"/><text id="LabelF" x="50" y="100" class="F Label" style="text-anchor:middle">F</text></g><g><circle id="ButtonG" cx="155" cy="10" r="4" class="G Button"/><path id="LeaderG" d="M 151 14 l -46 46 l 0 30 m -5 0 l 10 0" class="G Leader"/><text id="LabelG" x="105" y="100" class="G Label" style="text-anchor:middle">G</text></g><g><circle id="ButtonH" cx="172" cy="10" r="4" class="H Button"/><path id="LeaderH" d="M 172 15 l 0 75 m -5 0 l 10 0" class="H Leader"/><text id="LabelH" x="172" y="100" class="H Label" style="text-anchor:middle">H</text></g><g><circle id="ButtonI" cx="189" cy="10" r="4" class="I Button"/><path id="LeaderI" d="M 193 14 l 46 46 l 0 30 m -5 0 l 10 0" class="I Leader"/><text id="LabelI" x="239" y="100" class="I Label" style="text-anchor:middle">I</text></g><g><circle id="ButtonJ" cx="206" cy="10" r="4" class="J Button"/><path id="LeaderJ" d="M 212 10 l 82 0 l 0 80 m -5 0 l 10 0" class="J Leader"/><text id="LabelJ" x="294" y="100" class="J Label" style="text-anchor:middle">J</text></g></svg>