<svg xmlns="http://www.w3.org/2000/svg" style="color:#000;stroke:#7f7f7f;fill:none;stroke-width:.25;font-size:8" id="dtk-1651" width="275" height="222" version="1.1"><title id="title">Wacom DTK-1651</title><defs><clipPath id="ClipA"><rect width="8" height="12.5" x="256" y="145.5"/></clipPath><clipPath id="ClipB"><rect width="8" height="12.5" x="256" y="133"/></clipPath><clipPath id="ClipC"><rect width="8" height="12.5" x="256" y="69.5"/></clipPath><clipPath id="ClipD"><rect width="8" height="12.5" x="256" y="57"/></clipPath></defs><g><rect id="ButtonA" width="7.75" height="24.75" x="256.125" y="133.125" class="A Button" clip-path="url(#ClipA)" rx="4" ry="4"/><path id="LeaderA" d="M 254 154 L 244 154" class="A Leader"/><text id="LabelA" x="242" y="154" class="A Label" style="text-anchor:end">A</text><circle id="DotA1" cx="260" cy="154" r=".875"/></g><g><rect id="ButtonB" width="7.75" height="24.75" x="256.125" y="133.125" class="B Button" clip-path="url(#ClipB)" rx="4" ry="4"/><path id="LeaderB" d="M 254 137 L 244 137" class="B Leader"/><text id="LabelB" x="242" y="137" class="B Label" style="text-anchor:end">B</text><circle id="DotB1" cx="260" cy="137" r=".875"/></g><g><rect id="ButtonC" width="7.75" height="24.75" x="256.125" y="57.125" class="C Button" clip-path="url(#ClipC)" rx="4" ry="4"/><path id="LeaderC" d="M 254 78 L 244 78" class="C Leader"/><text id="LabelC" x="242" y="78" class="C Label" style="text-anchor:end">C</text><circle id="DotC1" cx="260" cy="78" r="1.875"/></g><g><rect id="ButtonD" width="7.75" height="24.75" x="256.125" y="57.125" class="D Button" clip-path="url(#ClipD)" rx="4" ry="4"/><path id="LeaderD" d="M 254 61 L 244 61" class="D Leader"/><text id="LabelD" x="242" y="61" class="D Label" style="text-anchor:end">D</text><circle id="DotD1" cx="260" cy="61" r="1.875"/></g></svg>