<svg xmlns="http://www.w3.org/2000/svg" style="color:#000;stroke:#7f7f7f;fill:none;stroke-width:.25;font-size:8" id="dtu-1141" width="344" height="300" version="1.1"><title id="title">Wacom DTU-1141</title><g><circle id="ButtonA" cx="95" cy="10" r=".5" class="A Button"/><path id="LeaderA" d="M 91 14 l -46 46 l 0 30 m -5 0 l 10 0" class="A Leader"/><text id="LabelA" x="45" y="105" class="A Label" style="text-anchor:middle">A</text></g><g><circle id="ButtonB" cx="112" cy="10" r=".5" class="B Button"/><path id="LeaderB" d="M 112 15 l 0 75 m -5 0 l 10 0" class="B Leader"/><text id="LabelB" x="112" y="105" class="B Label" style="text-anchor:middle">B</text></g><g><circle id="ButtonC" cx="129" cy="10" r=".5" class="C Button"/><path id="LeaderC" d="M 133 14 l 46 46 l 0 30 m -5 0 l 10 0" class="C Leader"/><text id="LabelC" x="179" y="105" class="C Label" style="text-anchor:middle">C</text></g><g><circle id="ButtonD" cx="146" cy="10" r=".5" class="D Button"/><path id="LeaderD" d="M 152 10 l 82 0 l 0 80 m -5 0 l 10 0" class="D Leader"/><text id="LabelD" x="234" y="105" class="D Label" style="text-anchor:middle">D</text></g></svg>