<svg xmlns="http://www.w3.org/2000/svg" xmlns:svg="http://www.w3.org/2000/svg" style="color:#000;stroke:#7f7f7f;fill:none;stroke-width:.25;font-size:8" id="ek-remote" width="265" height="215" version="1.1"><metadata id="metadata3448"/><title id="title">Wacom ExpressKey Remote</title><path id="LED0" d="m 114.39258,40.509766 0.0605,2.09375 3.50977,3.146484 a 21.473726,21.473726 0 0 1 1.67969,-1.683594 l -3.13867,-3.511718 -2.11133,-0.04492 z" style="fill:#fff"/><path id="LED1" d="m 133.98047,32.400391 -1.4375,1.523437 0.25586,4.644531 A 21.473726,21.473726 0 0 1 134,38.525391 a 21.473726,21.473726 0 0 1 1.18164,0.05859 l 0.25977,-4.660156 -1.46094,-1.523437 z" style="fill:#fff"/><path id="LED2" d="m 153.57812,40.521484 -2.09374,0.06055 -3.12305,3.484375 a 21.473726,21.473726 0 0 1 1.67383,1.691406 l 3.49804,-3.126953 0.0449,-2.109375 z" style="fill:#fff"/><circle id="Ring" cx="134" cy="60" r="19.716" class="Ring TouchRing"/><circle id="Ring Buttons" cx="134" cy="59" r="0" class="Ring TouchRing"/><g id="GroupB"><path id="ButtonB" d="M 112.03906,38.470703 A 30.783125,30.783125 0 0 0 103.2168,60 a 30.783125,30.783125 0 0 0 8.55078,21.275391 l 6.73633,-6.419922 A 21.473726,21.473726 0 0 1 112.52539,60 21.473726,21.473726 0 0 1 117.82812,45.894531 l -3.61914,-3.189453 -0.0312,-2.125 -2.13867,-2.109375 z" class="B Button"/><path id="LeaderB" d="m 80.088388,60.06066 28.161612,0" class="B Leader" style="stroke:gray"/><text id="LabelB" x="74" y="59.97" class="B Label" style="text-anchor:end">B</text></g><g id="GroupA"><circle id="ButtonA" cx="134" cy="60" r="7.69" class="A ModeSwitch Button"/><path id="LeaderA" d="m 133.9375,60 -34.091752,-18.125 -19.75736,0" class="A ModeSwitch Leader" style="stroke:gray"/><text id="LabelA" x="74" y="41.65" class="A ModeSwitch Label" style="text-anchor:end">A</text></g><g id="GroupD"><path id="ButtonD" d="m 134.25586,29.230469 -0.0293,3.130859 1.42188,1.46875 -0.30469,4.761719 a 21.473726,21.473726 0 0 1 12.86328,5.332031 l 3.1543,-3.591797 2.125,-0.03516 2.13867,-2.169922 a 30.783125,30.783125 0 0 0 -21.36914,-8.896484 z" class="D Button"/><path id="LeaderD" d="m 145,35 0,-10 5,-5 38.10138,0" class="D Leader" style="stroke:gray"/><text id="LabelD" x="195" y="20" class="D Label" style="text-anchor:start">D</text></g><g id="GroupE"><path id="ButtonE" d="m 155.95312,38.431641 -2.17968,2.148437 -0.0312,2.125 -3.60157,3.173828 A 21.473726,21.473726 0 0 1 155.47461,60 21.473726,21.473726 0 0 1 149.46094,74.869141 l 6.73047,6.414062 A 30.783125,30.783125 0 0 0 164.7832,60 30.783125,30.783125 0 0 0 155.95312,38.431641 Z" class="E Button"/><path id="LeaderE" d="m 160,60.06066 28.10722,0" class="E Leader" style="stroke:gray"/><text id="LabelE" x="194" y="59.97" class="E Label" style="text-anchor:start">E</text></g><g id="GroupF"><path id="ButtonF" d="m 119.26758,75.587891 -6.40625,6.738281 A 30.783125,30.783125 0 0 0 134,90.783203 30.783125,30.783125 0 0 0 155.13477,82.355469 l -6.41016,-6.742188 A 21.473726,21.473726 0 0 1 134,81.474609 21.473726,21.473726 0 0 1 119.26758,75.587891 Z" class="F Button"/><path style="stroke:gray" id="LeaderF" d="M 133.98874,86.270369 99.875,78.104854 l -19.803078,0" class="F Leader"/><text id="LabelF" x="74" y="77.948" class="F Label" style="text-anchor:end">F</text></g><path id="ButtonR" d="m 162,152 -15,0 a 12,12 0 0 1 -12,14 l 0,16 16,0 a 15,15 0 0 0 11,-16 l 0,-14" class="R Button"/><g id="GroupC"><path id="ButtonC" d="m 133.69336,29.228516 a 30.783125,30.783125 0 0 0 -21.35156,8.916015 l 2.12109,2.152344 2.125,0.03516 3.18164,3.623047 a 21.473726,21.473726 0 0 1 12.83399,-5.378906 l -0.30274,-4.746094 1.42188,-1.46875 -0.0293,-3.132812 z" class="C Button"/><text id="LabelC" x="74" y="19.996" class="C Label" style="text-anchor:end">C</text><path style="stroke:gray" id="LeaderC" d="m 123.98322,35 0,-10 -5,-5 -38.896875,0" class="C Leader"/></g><g id="GroupG"><path id="ButtonG" d="m 106,80 a 30,30 0 0 0 15,11 l 0,15 -15,0 0,-26" class="G Button"/><path id="LeaderG" d="m 111,95.75 -30.933281,0" class="G Leader" style="stroke:gray"/><text id="LabelG" x="74" y="95.739" class="G Label" style="text-anchor:end">G</text><circle id="DotG" cx="113.5" cy="96.75" r="1"/></g><g id="GroupI"><path id="ButtonI" d="m 147,91 a 30,30 0 0 0 15,-11 l 0,26 -15,0 0,-15" class="I Button"/><path id="LeaderI" d="m 157,95.75 31.10827,0" class="I Leader" style="stroke:gray"/><text id="LabelI" x="194" y="95.727" class="I Label" style="text-anchor:start">I</text><circle id="DotI" cx="154.5" cy="96.75" r="1"/></g><g id="GroupJ"><path id="ButtonJ" d="m 106,108 15,0 0,20 -15,0 0,-20" class="J Button"/><path id="LeaderJ" d="m 111,115.25 -31.24264,0" class="J Leader" style="stroke:gray"/><text id="LabelJ" x="74" y="115.273" class="J Label" style="text-anchor:end">J</text><rect id="RectangleJ" width="6.875" height="10" x="110.063" y="113" rx="1" ry="1"/></g><g id="GroupL"><path id="ButtonL" d="m 147,108 15,0 0,20 -15,0 0,-20" class="L Button"/><path id="LeaderL" d="m 158,115.25 30.08755,0" class="L Leader" style="stroke:gray"/><text id="LabelL" x="194" y="115.25" class="L Label" style="text-anchor:start">L</text><rect id="RectangleL" width="6.875" height="10" x="151.063" y="113" rx="1" ry="1"/></g><g id="GroupM"><path id="ButtonM" d="m 106,130 15,0 0,20 -15,0 0,-20" class="M Button"/><path id="LeaderM" d="m 111,140.625 -31.24264,0" class="M Leader" style="stroke:gray"/><text id="LabelM" x="74" y="140.651" class="M Label" style="text-anchor:end">M</text><rect id="LineM" width="1.5" height="9.934" x="112.75" y="135.033" rx=".745" ry="1"/></g><path id="ButtonO" d="m 147,130 15,0 0,20 -15,0 0,-20" class="O Button"/><path style="stroke:gray" id="LeaderO" d="m 152.75,145.125 21.86675,22.04353 13.47365,0" class="O Leader"/><text style="text-anchor:start" id="LabelO" x="194" y="166.955" class="O Label">O</text><rect id="LineO" width="1.5" height="9.934" x="153.75" y="135.033" rx=".745" ry="1"/><g id="GroupH"><path id="ButtonH" d="m 124,103 a 10,10 0 1 1 20,0 l 0,10 -20,0 0,-10" class="H Button"/><path id="LeaderH" d="m 138,105.35355 35.15076,35.06237 14.9375,0" class="H Leader" style="stroke:gray"/><text id="LabelH" x="194" y="140.328" class="H Label" style="text-anchor:start">H</text><circle id="DotH" cx="134" cy="103.875" r="1"/></g><g id="GroupK"><path id="ButtonK" d="m 124,115 20,0 0,13 -20,0 0,-13" class="K Button"/><path id="LeaderK" d="m 138,118 35.47474,35.34974 14.57551,0" class="K Leader" style="stroke:gray"/><text id="LabelK" x="194" y="153.409" class="K Label" style="text-anchor:start">K</text></g><g id="g4258"><g id="g4230"><path id="ButtonN" d="m 124,130 20,0 0,14 -20,0 0,-14" class="N Button"/><circle id="DotN" cx="134" cy="137" r="1"/></g><path id="LeaderN" d="m 130.02773,136.4291 -29.50793,16.8965 -20.795372,0" class="N Leader" style="stroke:gray"/><text id="LabelN" x="74" y="153.326" class="N Label" style="text-anchor:end">N</text></g><g id="GroupRingCCW"><path id="LeaderRingCCW" d="m 134,44 0,-2 54.10722,0" class="RingCCW Ring Leader" style="stroke:gray"/><text id="LabelRingCCW" x="194" y="41.646" class="RingCCW Ring Label" style="text-anchor:start">CCW</text><path id="RingCCW" d="m 131,47.077255 3,-1.5 0,1 a 7.5,7.5 0 0 1 5,1.5 6.5,6.5 0 0 0 -5,-0.5 l 0,1 z" class="RingCCW Button"/></g><g id="GroupRingCW"><path id="LeaderRingCW" d="m 134,76.12132 0,2 54.10722,0" class="RingCW Ring Leader" style="stroke:gray"/><text id="LabelRingCW" x="194" y="77.945" class="RingCW Ring Label" style="text-anchor:start">CW</text><path id="RingCW" d="m 131,73.06291 3,-1.5 0,1 a 7.5,7.5 0 0 0 5,-1 6.5,6.5 0 0 1 -5,2 l 0,1 z" class="RingCW Button"/></g><text id="LabelR" x="194" y="186.955" class="R Label" style="text-anchor:start">R</text><path style="stroke:gray" id="LeaderR" d="m 151.7304,170.29582 22.88635,16.87271 13.47365,0" class="R Leader"/><g id="g4265"><path id="ButtonQ" d="m 106,152 15,0 a 12,12 0 0 0 12,14 l 0,16 -14,0 a 15,15 0 0 1 -13,-16 l 0,-14" class="Q Button"/><path style="stroke:gray" id="LeaderQ" d="m 118.01105,170.21638 -17.60245,16.9099 -20.746542,0.0242" class="Q Leader"/><text style="text-anchor:end" id="LabelQ" x="74" y="187.108" class="Q Label">Q</text></g><g id="GroupP" transform="translate(0,0.14565678)"><path id="ButtonP" d="m 124,154 a 10,10 0 0 0 20,0 l 0,-8 -20,0 0,8" class="P Button"/><path id="LeaderP" d="m 130.02773,152.76537 -29.61913,14.21525 -20.746542,0.0242" class="P Leader" style="stroke:gray"/><text id="LabelP" x="74" y="166.962" class="P Label" style="text-anchor:end">P</text></g></svg>