<svg xmlns="http://www.w3.org/2000/svg" style="color:#000;stroke:#7f7f7f;fill:none;stroke-width:.25;font-size:8" id="graphire-wireless-8x6" width="257" height="280" version="1.1"><title id="title">Wacom Graphire Wireless</title><path d="M 86 0 a 50 33 0 0 0 85 0"/><g><path id="ButtonA" d="M 98 10 a 42 18 0 0 0 30 7 l 0 6 a 42 15 0 0 1 -34 -8 z" class="A Button"/><path id="LeaderA" d="M 111 22 l -62 31 l 0 10 m -5 0 l 10 0" class="A Leader"/><text id="LabelA" x="49" y="73" class="A Label" style="text-anchor:middle">A</text></g><g><path id="ButtonB" d="M 159 10 a 42 18 0 0 1 -30 7 l 0 6 a 42 15 0 0 0 34 -8 z" class="B Button"/><path id="LeaderB" d="M 146 22 l 62 31 l 0 10 m -5 0 l 10 0" class="B Leader"/><text id="LabelB" x="208" y="73" class="B Label" style="text-anchor:middle">B</text></g></svg>