<svg xmlns="http://www.w3.org/2000/svg" style="color:#000;stroke:#7f7f7f;fill:none;stroke-width:.25;font-size:8" id="intuos-pro-m" width="355" height="250" version="1.1"><title id="title">Huion H610 Pro</title><g><circle id="ButtonA" cx="29" cy="56" r="7.5" class="A ModeSwitch Button"/><path id="LeaderA" d="m 51,56 4,0" class="A ModeSwitch Leader"/><text id="LabelA" x="57" y="56" class="A ModeSwitch Label" style="text-anchor:start">A</text></g><g><circle id="ButtonB" cx="29" cy="75" r="7.5" class="B ModeSwitch Button"/><path id="LeaderB" d="m 51,75 4,0" class="B ModeSwitch Leader"/><text style="text-anchor:start" id="LabelB" x="57" y="75" class="B ModeSwitch Label">B</text></g><g><circle id="ButtonC" cx="29" cy="94" r="7.5" class="C ModeSwitch Button"/><path id="LeaderC" d="m 51,94 4,0" class="C ModeSwitch Leader"/><text id="LabelC" x="57" y="94" class="C ModeSwitch Label" style="text-anchor:start">C</text></g><g><path id="ButtonD" d="m 18.056792,123.54602 c 0.300764,-2.53638 1.528708,-4.99316 3.165033,-6.65348 1.990614,-1.99061 4.740609,-3.22183 7.778175,-3.22183 3.037566,0 5.787566,1.23122 7.778174,3.22183 1.772939,2.1284 2.827481,4.24769 3.165034,6.65348 -10.929806,-3.03352 -12.689135,3.86 -21.886416,0 z" class="D ModeSwitch Button"/><path id="LeaderD" d="m 51,118 4,0" class="D ModeSwitch Leader"/><text id="LabelD" x="57" y="118" class="D ModeSwitch Label" style="text-anchor:start">D</text></g><g><path id="ButtonE" d="m 39.943205,125.91036 c -0.30076,2.53638 -1.5287,4.99316 -3.16503,6.65348 -1.99061,1.99061 -4.74061,3.22183 -7.77817,3.22183 -3.03757,0 -5.78757,-1.23122 -7.77818,-3.22183 -1.77294,-2.1284 -2.82748,-4.24769 -3.16503,-6.65348 10.9298,3.03352 12.68913,-3.86 21.88641,0 z" class="E ModeSwitch Button"/><path id="LeaderE" d="m 51,132 4,0" class="E ModeSwitch Leader"/><text id="LabelE" x="57" y="132" class="E ModeSwitch Label" style="text-anchor:start">E</text></g><g><circle id="ButtonF" cx="29" cy="156" r="7.5" class="F ModeSwitch Button"/><path id="LeaderF" d="m 51,156 4,0" class="F ModeSwitch Leader"/><text id="LabelF" x="57" y="156" class="F ModeSwitch Label" style="text-anchor:start">F</text></g><g><circle id="ButtonG" cx="29" cy="175" r="7.5" class="G ModeSwitch Button"/><path id="LeaderG" d="m 51,175 4,0" class="G ModeSwitch Leader"/><text id="LabelG" x="57" y="175" class="G ModeSwitch Label" style="text-anchor:start">G</text></g><g><circle id="ButtonH" cx="29" cy="194" r="7.5" class="H ModeSwitch Button"/><path id="LeaderH" d="m 51,194 4,0" class="H ModeSwitch Leader"/><text id="LabelH" x="57" y="194" class="H ModeSwitch Label" style="text-anchor:start">H</text></g></svg>