<svg xmlns="http://www.w3.org/2000/svg" style="color:#000;stroke:#7f7f7f;fill:none;stroke-width:.25;font-size:8" id="intuos-pro-m" width="320" height="208" version="1.1"><title id="title">Wacom Intuos5 Pro S</title><g><rect id="ButtonB" width="20" height="12" x="24" y="33" class="B Button" rx="2" ry="2"/><path id="LeaderB" d="M 46 39 L 50 39" class="B Leader"/><text id="LabelB" x="52" y="39" class="B Label" style="text-anchor:start">B</text></g><g><rect id="ButtonC" width="20" height="12" x="24" y="47" class="C Button" rx="2" ry="2"/><rect id="DotC1" width="8" height="1" x="30" y="52.5" rx="1" ry="1"/><path id="LeaderC" d="M 46 53 L 50 53" class="C Leader"/><text id="LabelC" x="52" y="53" class="C Label" style="text-anchor:start">C</text></g><g><rect id="ButtonD" width="20" height="12" x="24" y="61" class="D Button" rx="2" ry="2"/><path id="LeaderD" d="M 46 67 L 50 67" class="D Leader"/><text id="LabelD" x="52" y="67" class="D Label" style="text-anchor:start">D</text></g><g><rect id="ButtonE" width="20" height="12" x="24" y="135" class="E Button" rx="2" ry="2"/><path id="LeaderE" d="M 46 141 L 50 141" class="E Leader"/><text id="LabelE" x="52" y="141" class="E Label" style="text-anchor:start">E</text></g><g><rect id="ButtonF" width="20" height="12" x="24" y="149" class="F Button" rx="2" ry="2"/><rect id="DotF1" width="8" height="1" x="30" y="154.5" rx="1" ry="1"/><path id="LeaderF" d="M 46 155 L 50 155" class="F Leader"/><text id="LabelF" x="52" y="155" class="F Label" style="text-anchor:start">F</text></g><g><rect id="ButtonG" width="20" height="12" x="24" y="163" class="G Button" rx="2" ry="2"/><path id="LeaderG" d="M 46 169 L 50 169" class="G Leader"/><text id="LabelG" x="52" y="169" class="G Label" style="text-anchor:start">G</text></g><g><circle id="Ring" cx="34" cy="104" r="19.5" class="Ring TouchRing"/><path id="LeaderRingCCW" d="M 34 84 L 34 82 L 60 82" class="RingCCW Ring Leader"/><text id="LabelRingCCW" x="62" y="82" class="RingCCW Ring Label" style="text-anchor:start">CCW</text><path id="RingCCW" d="M 31 90 l 3 -1.5 l 0 1 a 7.5 7.5 0 0 1 5 1.5 a 6.5 6.5 0 0 0 -5 -0.5 l 0 1 z" class="RingCCW Button"/><path id="LeaderRingCW" d="M 34 124 L 34 126 L 60 126" class="RingCW Ring Leader"/><text id="LabelRingCW" x="62" y="126" class="RingCW Ring Label" style="text-anchor:start">CW</text><path id="RingCW" d="M 31 118 l 3 -1.5 l 0 1 a 7.5 7.5 0 0 0 5 -1 a 6.5 6.5 0 0 1 -5 2 l 0 1 z" class="RingCW Button"/></g><g><circle id="ButtonA" cx="34" cy="104" r="9.5" class="A ModeSwitch Button"/><path id="LeaderA" d="M 56 104 L 60 104" class="A ModeSwitch Leader"/><text id="LabelA" x="62" y="104" class="A ModeSwitch Label" style="text-anchor:start">A</text></g></svg>