<svg xmlns="http://www.w3.org/2000/svg" style="color:#000;stroke:#7f7f7f;fill:none;stroke-width:.25;font-size:8" id="intuos-pro-m" width="380" height="250" version="1.1"><title id="title">Wacom Intuos Pro M</title><g><rect id="ButtonB" width="20" height="12" x="24" y="40" class="B Button" rx="2" ry="2"/><path id="LeaderB" d="M 46 46 L 50 46" class="B Leader"/><text id="LabelB" x="52" y="46" class="B Label" style="text-anchor:start">B</text></g><g><rect id="ButtonC" width="20" height="12" x="24" y="54" class="C Button" rx="2" ry="2"/><rect id="DotC1" width="8" height="1" x="30" y="59.5" rx="1" ry="1"/><path id="LeaderC" d="M 46 60 L 50 60" class="C Leader"/><text id="LabelC" x="52" y="60" class="C Label" style="text-anchor:start">C</text></g><g><rect id="ButtonD" width="20" height="12" x="24" y="68" class="D Button" rx="2" ry="2"/><circle id="DotD1" cx="34" cy="74" r=".75"/><path id="LeaderD" d="M 46 74 L 50 74" class="D Leader"/><text id="LabelD" x="52" y="74" class="D Label" style="text-anchor:start">D</text></g><g><rect id="ButtonE" width="20" height="12" x="24" y="82" class="E Button" rx="2" ry="2"/><path id="LeaderE" d="M 46 88 L 50 88" class="E Leader"/><text id="LabelE" x="52" y="88" class="E Label" style="text-anchor:start">E</text></g><g><rect id="ButtonF" width="20" height="12" x="24" y="156" class="F Button" rx="2" ry="2"/><path id="LeaderF" d="M 46 162 L 50 162" class="F Leader"/><text id="LabelF" x="52" y="162" class="F Label" style="text-anchor:start">F</text></g><g><rect id="ButtonG" width="20" height="12" x="24" y="170" class="G Button" rx="2" ry="2"/><circle id="DotG1" cx="34" cy="176" r=".75"/><path id="LeaderG" d="M 46 176 L 50 176" class="G Leader"/><text id="LabelG" x="52" y="176" class="G Label" style="text-anchor:start">G</text></g><g><rect id="ButtonH" width="20" height="12" x="24" y="184" class="H Button" rx="2" ry="2"/><rect id="DotH1" width="8" height="1" x="30" y="189.5" rx="1" ry="1"/><path id="LeaderH" d="M 46 190 L 50 190" class="H Leader"/><text id="LabelH" x="52" y="190" class="H Label" style="text-anchor:start">H</text></g><g><rect id="ButtonI" width="20" height="12" x="24" y="198" class="I Button" rx="2" ry="2"/><path id="LeaderI" d="M 46 204 L 50 204" class="I Leader"/><text id="LabelI" x="52" y="204" class="I Label" style="text-anchor:start">I</text></g><g><circle id="Ring" cx="34" cy="125" r="19.5" class="Ring TouchRing"/><path id="LeaderRingCCW" d="M 34 105 L 34 103 L 60 103" class="RingCCW Ring Leader"/><text id="LabelRingCCW" x="62" y="103" class="RingCCW Ring Label" style="text-anchor:start">CCW</text><path id="RingCCW" d="M 31 111 l 3 -1.5 l 0 1 a 7.5 7.5 0 0 1 5 1.5 a 6.5 6.5 0 0 0 -5 -0.5 l 0 1 z" class="RingCCW Button"/><path id="LeaderRingCW" d="M 34 145 L 34 147 L 60 147" class="RingCW Ring Leader"/><text id="LabelRingCW" x="62" y="147" class="RingCW Ring Label" style="text-anchor:start">CW</text><path id="RingCW" d="M 31 139 l 3 -1.5 l 0 1 a 7.5 7.5 0 0 0 5 -1 a 6.5 6.5 0 0 1 -5 2 l 0 1 z" class="RingCW Button"/></g><g><circle id="ButtonA" cx="34" cy="125" r="9.5" class="A ModeSwitch Button"/><path id="LeaderA" d="M 56 125 L 60 125" class="A ModeSwitch Leader"/><text id="LabelA" x="62" y="125" class="A ModeSwitch Label" style="text-anchor:start">A</text></g></svg>