<svg xmlns="http://www.w3.org/2000/svg" style="color:#000;stroke:#7f7f7f;fill:none;stroke-width:.25;font-size:8" id="intuos4-6x9-wl" width="363" height="254" version="1.1"><title id="title">Wacom Intuos4 WL</title><g><rect id="ButtonB" width="22" height="12" x="11" y="40" class="B Button" rx=".5" ry=".5"/><path id="LeaderB" d="M 35 46 l 25 0" class="B Leader"/><text id="LabelB" x="62" y="46" class="B Label" style="text-anchor:start">B</text></g><g><rect id="ButtonC" width="22" height="12" x="11" y="53" class="C Button" rx=".5" ry=".5"/><path id="LeaderC" d="M 35 59 l 25 0" class="C Leader"/><text id="LabelC" x="62" y="59" class="C Label" style="text-anchor:start">C</text></g><g><rect id="ButtonD" width="22" height="12" x="11" y="66" class="D Button" rx=".5" ry=".5"/><path id="LeaderD" d="M 35 72 l 25 0" class="D Leader"/><text id="LabelD" x="62" y="72" class="D Label" style="text-anchor:start">D</text></g><g><rect id="ButtonE" width="22" height="12" x="11" y="79" class="E Button" rx=".5" ry=".5"/><path id="LeaderE" d="M 35 85 l 25 0" class="E Leader"/><text id="LabelE" x="62" y="85" class="E Label" style="text-anchor:start">E</text></g><g><rect id="ButtonF" width="22" height="12" x="11" y="163" class="F Button" rx=".5" ry=".5"/><path id="LeaderF" d="M 35 169 l 25 0" class="F Leader"/><text id="LabelF" x="62" y="169" class="F Label" style="text-anchor:start">F</text></g><g><rect id="ButtonG" width="22" height="12" x="11" y="176" class="G Button" rx=".5" ry=".5"/><path id="LeaderG" d="M 35 182 l 25 0" class="G Leader"/><text id="LabelG" x="62" y="182" class="G Label" style="text-anchor:start">G</text></g><g><rect id="ButtonH" width="22" height="12" x="11" y="189" class="H Button" rx=".5" ry=".5"/><path id="LeaderH" d="M 35 195 l 25 0" class="H Leader"/><text id="LabelH" x="62" y="195" class="H Label" style="text-anchor:start">H</text></g><g><rect id="ButtonI" width="22" height="12" x="11" y="202" class="I Button" rx=".5" ry=".5"/><path id="LeaderI" d="M 35 208 l 25 0" class="I Leader"/><text id="LabelI" x="62" y="208" class="I Label" style="text-anchor:start">I</text></g><g><circle id="Ring" cx="31" cy="127" r="19.5" class="Ring TouchRing"/><path id="LeaderRingCCW" d="M 31 107 l 0 -2 l 29 0" class="RingCCW Ring Leader"/><text id="LabelRingCCW" x="62" y="105" class="RingCCW Ring Label" style="text-anchor:start">CCW</text><path id="RingCCW" d="M 28 113 l 3 -1.5 l 0 1 a 7.5 7.5 0 0 1 5 1.5 a 6.5 6.5 0 0 0 -5 -0.5 l 0 1 z" class="RingCCW Button"/><path id="LeaderRingCW" d="M 31 147 l 0 2 l 29 0" class="RingCW Ring Leader"/><text id="LabelRingCW" x="62" y="149" class="RingCW Ring Label" style="text-anchor:start">CW</text><path id="RingCW" d="M 28 142 l 3 -1.5 l 0 1 a 7.5 7.5 0 0 0 5 -1 a 6.5 6.5 0 0 1 -5 2 l 0 1 z" class="RingCW Button"/></g><g><circle id="ButtonA" cx="31" cy="127" r="9.5" class="A ModeSwitch Button"/><path id="LeaderA" d="M 53 127 l 7 0" class="A ModeSwitch Leader"/><text id="LabelA" x="62" y="127" class="A ModeSwitch Label" style="text-anchor:start">A</text></g></svg>