<svg xmlns="http://www.w3.org/2000/svg" style="color:#000;stroke:#7f7f7f;fill:none;stroke-width:.25;font-size:8" id="intuos4-xl" width="623" height="462" version="1.1"><title id="title">Wacom Intuos4 XL</title><g><rect id="ButtonB" width="22" height="12" x="14" y="149" class="B Button" rx=".5" ry=".5"/><path id="LeaderB" d="M 38 155 L 60 155" class="B Leader"/><text id="LabelB" x="62" y="155" class="B Label" style="text-anchor:start">B</text></g><g><rect id="ButtonC" width="22" height="12" x="14" y="162" class="C Button" rx=".5" ry=".5"/><path id="LeaderC" d="M 38 168 L 60 168" class="C Leader"/><text id="LabelC" x="62" y="168" class="C Label" style="text-anchor:start">C</text></g><g><rect id="ButtonD" width="22" height="12" x="14" y="175" class="D Button" rx=".5" ry=".5"/><path id="LeaderD" d="M 38 181 L 60 181" class="D Leader"/><text id="LabelD" x="62" y="181" class="D Label" style="text-anchor:start">D</text></g><g><rect id="ButtonE" width="22" height="12" x="14" y="188" class="E Button" rx=".5" ry=".5"/><path id="LeaderE" d="M 38 194 L 60 194" class="E Leader"/><text id="LabelE" x="62" y="194" class="E Label" style="text-anchor:start">E</text></g><g><rect id="ButtonF" width="22" height="12" x="14" y="260" class="F Button" rx=".5" ry=".5"/><path id="LeaderF" d="M 38 266 L 60 266" class="F Leader"/><text id="LabelF" x="62" y="266" class="F Label" style="text-anchor:start">F</text></g><g><rect id="ButtonG" width="22" height="12" x="14" y="273" class="G Button" rx=".5" ry=".5"/><path id="LeaderG" d="M 38 279 L 60 279" class="G Leader"/><text id="LabelG" x="62" y="279" class="G Label" style="text-anchor:start">G</text></g><g><rect id="ButtonH" width="22" height="12" x="14" y="286" class="H Button" rx=".5" ry=".5"/><path id="LeaderH" d="M 38 292 L 60 292" class="H Leader"/><text id="LabelH" x="62" y="292" class="H Label" style="text-anchor:start">H</text></g><g><rect id="ButtonI" width="22" height="12" x="14" y="299" class="I Button" rx=".5" ry=".5"/><path id="LeaderI" d="M 38 305 L 60 305" class="I Leader"/><text id="LabelI" x="62" y="305" class="I Label" style="text-anchor:start">I</text></g><g><circle id="Ring" cx="34" cy="230" r="19.5" class="Ring TouchRing"/><path id="LeaderRingCCW" d="M 34 210 L 34 208 L 60 208" class="RingCCW Ring Leader"/><text id="LabelRingCCW" x="62" y="208" class="RingCCW Ring Label" style="text-anchor:start">CCW</text><path id="RingCCW" d="M 31 216 l 3 -1.5 l 0 1 a 7.5 7.5 0 0 1 5 1.5 a 6.5 6.5 0 0 0 -5 -0.5 l 0 1 z" class="RingCCW Button"/><path id="LeaderRingCW" d="M 34 250 L 34 252 L 60 252" class="RingCW Ring Leader"/><text id="LabelRingCW" x="62" y="252" class="RingCW Ring Label" style="text-anchor:start">CW</text><path id="RingCW" d="M 31 244 l 3 -1.5 l 0 1 a 7.5 7.5 0 0 0 5 -1 a 6.5 6.5 0 0 1 -5 2 l 0 1 z" class="RingCW Button"/></g><g><circle id="ButtonA" cx="34" cy="230" r="9.5" class="A ModeSwitch Button"/><path id="LeaderA" d="M 56 230 L 60 230" class="A ModeSwitch Leader"/><text id="LabelA" x="62" y="230" class="A ModeSwitch Label" style="text-anchor:start">A</text></g></svg>