<svg xmlns="http://www.w3.org/2000/svg" style="color:#000;stroke:#7f7f7f;fill:none;stroke-width:.25;font-size:8" id="intuos4-s" width="309" height="208" version="1.1"><title id="title">Wacom Intuos4 S</title><g><rect id="ButtonB" width="22" height="12" x="24" y="36" class="B Button" rx=".5" ry=".5"/><path id="LeaderB" d="M 48 42 L 60 42" class="B Leader"/><text id="LabelB" x="62" y="42" class="B Label" style="text-anchor:start">B</text></g><g><rect id="ButtonC" width="22" height="12" x="24" y="49" class="C Button" rx=".5" ry=".5"/><path id="LeaderC" d="M 48 55 L 60 55" class="C Leader"/><text id="LabelC" x="62" y="55" class="C Label" style="text-anchor:start">C</text></g><g><rect id="ButtonD" width="22" height="12" x="24" y="62" class="D Button" rx=".5" ry=".5"/><path id="LeaderD" d="M 48 68 L 60 68" class="D Leader"/><text id="LabelD" x="62" y="68" class="D Label" style="text-anchor:start">D</text></g><g><rect id="ButtonE" width="22" height="12" x="24" y="134" class="E Button" rx=".5" ry=".5"/><path id="LeaderE" d="M 48 140 L 60 140" class="E Leader"/><text id="LabelE" x="62" y="140" class="E Label" style="text-anchor:start">E</text></g><g><rect id="ButtonF" width="22" height="12" x="24" y="147" class="F Button" rx=".5" ry=".5"/><path id="LeaderF" d="M 48 153 L 60 153" class="F Leader"/><text id="LabelF" x="62" y="153" class="F Label" style="text-anchor:start">F</text></g><g><rect id="ButtonG" width="22" height="12" x="24" y="160" class="G Button" rx=".5" ry=".5"/><path id="LeaderG" d="M 48 166 L 60 166" class="G Leader"/><text id="LabelG" x="62" y="166" class="G Label" style="text-anchor:start">G</text></g><g><circle id="Ring" cx="34" cy="104" r="19.5" class="Ring TouchRing"/><path id="LeaderRingCCW" d="M 34 84 L 34 82 L 60 82" class="RingCCW Ring Leader"/><text id="LabelRingCCW" x="62" y="82" class="RingCCW Ring Label" style="text-anchor:start">CCW</text><path id="RingCCW" d="M 31 90 l 3 -1.5 l 0 1 a 7.5 7.5 0 0 1 5 1.5 a 6.5 6.5 0 0 0 -5 -0.5 l 0 1 z" class="RingCCW Button"/><path id="LeaderRingCW" d="M 34 124 L 34 126 L 60 126" class="RingCW Ring Leader"/><text id="LabelRingCW" x="62" y="126" class="RingCW Ring Label" style="text-anchor:start">CW</text><path id="RingCW" d="M 31 118 l 3 -1.5 l 0 1 a 7.5 7.5 0 0 0 5 -1 a 6.5 6.5 0 0 1 -5 2 l 0 1 z" class="RingCW Button"/></g><g><circle id="ButtonA" cx="34" cy="104" r="9.5" class="A ModeSwitch Button"/><path id="LeaderA" d="M 56 104 L 60 104" class="A ModeSwitch Leader"/><text id="LabelA" x="62" y="104" class="A ModeSwitch Label" style="text-anchor:start">A</text></g></svg>