<svg xmlns="http://www.w3.org/2000/svg" style="color:#000;stroke:#7f7f7f;fill:none;stroke-width:.25;font-size:8" id="intuos-m-p" width="275" height="222" version="1.1"><title id="title">Wacom Intuos Pen Medium (CTL-680)</title><g><path id="ButtonA" d="M 2,10.5 a 12.75,8.5 0 0 1 12.75,-8.5 l 23.75,0 l 0,19 l -36.5,0 z" class="A Button"/><circle id="DotA" cx="20.25" cy="11.5" r=".5"/><path id="LeaderA" d="M 40,11.5 l 20,0" class="A Leader"/><text id="LabelA" x="62" y="11.5" class="A Label" style="text-anchor:start">A</text></g><g><path id="ButtonB" d="M 2,22 l 36.5,0 l 0,19 l -36.5,0 z" class="B Button"/><circle id="DotB" cx="20.25" cy="31.5" r=".5"/><path id="LeaderB" d="M 40,31.5 l 20,0" class="B Leader"/><text id="LabelB" x="62" y="31.5" class="B Label" style="text-anchor:start">B</text></g><g><path id="ButtonC" d="M 236.5,2 l 23.75,0 a 12.75,8.5 0 0 1 12.75,8.5 l 0,10.5 l -36.5,0 z" class="C Button"/><circle id="DotC" cx="254.5" cy="11.5" r=".5"/><path id="LeaderC" d="M 233,11.5 l -20,0" class="C Leader"/><text id="LabelC" x="211" y="11.5" class="C Label" style="text-anchor:end">C</text></g><g><path id="ButtonD" d="M 236.5,22 l 36.5,0 l 0,19 l -36.5,0 z" class="D Button"/><circle id="DotD" cx="254.5" cy="31.5" r=".5"/><path id="LeaderD" d="M 233,31.5 l -20,0" class="D Leader"/><text id="LabelD" x="211" y="31.5" class="D Label" style="text-anchor:end">D</text></g></svg>