<svg xmlns="http://www.w3.org/2000/svg" style="color:#000;stroke:#7f7f7f;fill:none;stroke-width:.25;font-size:8" id="intuos-pro-l" width="487" height="318" version="1.1"><title id="title">Wacom Intuos Pro L</title><g><rect id="ButtonB" width="20" height="12" x="24" y="74" class="B Button" rx="2" ry="2"/><path id="LeaderB" d="M 46 80 L 50 80" class="B Leader"/><text id="LabelB" x="52" y="80" class="B Label" style="text-anchor:start">B</text></g><g><rect id="ButtonC" width="20" height="12" x="24" y="88" class="C Button" rx="2" ry="2"/><rect id="DotC1" width="8" height="1" x="30" y="93.5" rx="1" ry="1"/><path id="LeaderC" d="M 46 94 L 50 94" class="C Leader"/><text id="LabelC" x="52" y="94" class="C Label" style="text-anchor:start">C</text></g><g><rect id="ButtonD" width="20" height="12" x="24" y="102" class="D Button" rx="2" ry="2"/><circle id="DotD1" cx="34" cy="108" r=".75"/><path id="LeaderD" d="M 46 108 L 50 108" class="D Leader"/><text id="LabelD" x="52" y="108" class="D Label" style="text-anchor:start">D</text></g><g><rect id="ButtonE" width="20" height="12" x="24" y="116" class="E Button" rx="2" ry="2"/><path id="LeaderE" d="M 46 122 L 50 122" class="E Leader"/><text id="LabelE" x="52" y="122" class="E Label" style="text-anchor:start">E</text></g><g><rect id="ButtonF" width="20" height="12" x="24" y="190" class="F Button" rx="2" ry="2"/><path id="LeaderF" d="M 46 196 L 50 196" class="F Leader"/><text id="LabelF" x="52" y="196" class="F Label" style="text-anchor:start">F</text></g><g><rect id="ButtonG" width="20" height="12" x="24" y="204" class="G Button" rx="2" ry="2"/><circle id="DotG1" cx="34" cy="210" r=".75"/><path id="LeaderG" d="M 46 210 L 50 210" class="G Leader"/><text id="LabelG" x="52" y="210" class="G Label" style="text-anchor:start">G</text></g><g><rect id="ButtonH" width="20" height="12" x="24" y="218" class="H Button" rx="2" ry="2"/><rect id="DotH1" width="8" height="1" x="30" y="223.5" rx="1" ry="1"/><path id="LeaderH" d="M 46 224 L 50 224" class="H Leader"/><text id="LabelH" x="52" y="224" class="H Label" style="text-anchor:start">H</text></g><g><rect id="ButtonI" width="20" height="12" x="24" y="232" class="I Button" rx="2" ry="2"/><path id="LeaderI" d="M 46 238 L 50 238" class="I Leader"/><text id="LabelI" x="52" y="238" class="I Label" style="text-anchor:start">I</text></g><g><circle id="Ring" cx="34" cy="159" r="19.5" class="Ring TouchRing"/><path id="LeaderRingCCW" d="M 34 139 L 34 137 L 60 137" class="RingCCW Ring Leader"/><text id="LabelRingCCW" x="62" y="137" class="RingCCW Ring Label" style="text-anchor:start">CCW</text><path id="RingCCW" d="M 31 145 l 3 -1.5 l 0 1 a 7.5 7.5 0 0 1 5 1.5 a 6.5 6.5 0 0 0 -5 -0.5 l 0 1 z" class="RingCCW Button"/><path id="LeaderRingCW" d="M 34 179 L 34 181 L 60 181" class="RingCW Ring Leader"/><text id="LabelRingCW" x="62" y="181" class="RingCW Ring Label" style="text-anchor:start">CW</text><path id="RingCW" d="M 31 173 l 3 -1.5 l 0 1 a 7.5 7.5 0 0 0 5 -1 a 6.5 6.5 0 0 1 -5 2 l 0 1 z" class="RingCW Button"/></g><g><circle id="ButtonA" cx="34" cy="159" r="9.5" class="A ModeSwitch Button"/><path id="LeaderA" d="M 56 159 L 60 159" class="A ModeSwitch Leader"/><text id="LabelA" x="62" y="159" class="A ModeSwitch Label" style="text-anchor:start">A</text></g></svg>