<svg xmlns="http://www.w3.org/2000/svg" style="color:#000;stroke:#7f7f7f;fill:none;stroke-width:.25;font-size:8" id="intuos3-9x12" width="440" height="340" version="1.1"><title id="title">Wacom Intuos3 9x12</title><g><rect id="ButtonA" width="11" height="17" x="22" y="41" class="A Button" rx=".5" ry=".5"/><path id="LeaderA" d="M 28 39 l 0 -10 l 32 0" class="A Leader"/><text id="LabelA" x="62" y="29" class="A Label" style="text-anchor:start">A</text></g><g><rect id="ButtonB" width="11" height="17" x="22" y="59" class="B Button" rx=".5" ry=".5"/><circle id="DotB" cx="27.5" cy="67.5" r=".5"/><path id="LeaderB" d="M 32 68 l 2 0 l 0 32 l 26 0" class="B Leader"/><text id="LabelB" x="62" y="100" class="B Label" style="text-anchor:start">B</text></g><g><rect id="ButtonC" width="11" height="35" x="10" y="41" class="C Button" rx=".5" ry=".5"/><path id="LeaderC" d="M 8 58 l -1 0 l 0 -48 l 53 0" class="C Leader"/><text id="LabelC" x="62" y="10" class="C Label" style="text-anchor:start">C</text></g><g><rect id="ButtonD" width="23" height="11" x="10" y="77" class="D Button" rx=".5" ry=".5"/><path id="LeaderD" d="M 22 90 l 0 29 l 38 0" class="D Leader"/><text id="LabelD" x="62" y="119" class="D Label" style="text-anchor:start">D</text></g><g><rect id="ButtonE" width="11" height="17" x="407" y="41" class="E Button" rx=".5" ry=".5"/><path id="LeaderE" d="M 412 39 l 0 -10 l -32 0" class="E Leader"/><text id="LabelE" x="378" y="29" class="E Label" style="text-anchor:end">E</text></g><g><rect id="ButtonF" width="11" height="17" x="407" y="59" class="F Button" rx=".5" ry=".5"/><circle id="DotF" cx="412.5" cy="67.5" r=".5"/><path id="LeaderF" d="M 408 68 l -2 0 l 0 32 l -26 0" class="F Leader"/><text id="LabelF" x="378" y="100" class="F Label" style="text-anchor:end">F</text></g><g><rect id="ButtonG" width="11" height="35" x="419" y="41" class="G Button" rx=".5" ry=".5"/><path id="LeaderG" d="M 432 58 l 1 0 l 0 -48 l -53 0" class="G Leader"/><text id="LabelG" x="378" y="10" class="G Label" style="text-anchor:end">G</text></g><g><rect id="ButtonH" width="23" height="11" x="407" y="77" class="H Button" rx=".5" ry=".5"/><path id="LeaderH" d="M 419 90 l 0 29 l -38 0" class="H Leader"/><text id="LabelH" x="378" y="119" class="H Label" style="text-anchor:end">H</text></g><g><rect id="Strip" width="12" height="47" x="35" y="41" class="Strip TouchStrip" rx="1" ry="1"/><path id="LeaderStripUp" d="M 41 39 l 0 -1 l 10 0 l 0 10 l 9 0" class="StripUp Strip Leader"/><text id="LabelStripUp" x="62" y="48" class="StripUp Strip Label" style="text-anchor:start">Up</text><path id="LeaderStripDown" d="M 41 90 l 0 1 l 10 0 l 0 -10 l 9 0" class="StripDown Strip Leader"/><text id="LabelStripDown" x="62" y="81" class="StripDown Strip Label" style="text-anchor:start">Down</text></g><g><rect id="Strip2" width="12" height="47" x="393" y="41" class="Strip2 TouchStrip" rx="1" ry="1"/><path id="LeaderStrip2Up" d="M 399 39 l 0 -1 l -10 0 l 0 10 l -9 0" class="Strip2Up Strip2 Leader"/><text id="LabelStrip2Up" x="378" y="48" class="Strip2Up Strip2 Label" style="text-anchor:end">Up</text><path id="LeaderStrip2Down" d="M 399 90 l 0 1 l -10 0 l 0 -10 l -9 0" class="Strip2Down Strip2 Leader"/><text id="LabelStrip2Down" x="378" y="81" class="Strip2Down Strip2 Label" style="text-anchor:end">Down</text></g></svg>