<svg xmlns="http://www.w3.org/2000/svg" xmlns:svg="http://www.w3.org/2000/svg" style="color:#000;stroke:#7f7f7f;fill:none;stroke-width:.25;font-size:8" id="intuos-pro-2-m" width="380" height="250" version="1.1"><metadata id="metadata66"/><title id="title">Wacom Intuos Pro 2 M</title><g id="GroupA"><path id="ButtonA" d="M 24 42 c 0 -2 2 -2 2 -2 l 16 0 c 2 0 2 2 2 2 l 0 10 l -20 0 l -0 -10" class="A Button"/><path id="LeaderA" d="M 46 46 L 50 46" class="A Leader"/><text id="LabelA" x="52" y="46" class="A Label" style="text-anchor:start">A</text></g><g id="g9" transform="translate(0,-1.5889831)"><rect id="ButtonB" width="20" height="12" x="24" y="54" class="B Button"/><rect id="DotB1" width="8" height="1" x="30" y="59.5" rx="1" ry="1"/><path id="LeaderB" d="m 46,60 4,0" class="B Leader"/><text id="LabelB" x="52" y="60" class="B Label" style="text-anchor:start">B</text></g><g id="g15" transform="translate(0,-3.1779661)"><rect id="ButtonC" width="20" height="12" x="24" y="68" class="C Button"/><circle id="DotC1" cx="34" cy="74" r=".75" d="m 34.75,74 c 0,0.414214 -0.335786,0.75 -0.75,0.75 -0.414214,0 -0.75,-0.335786 -0.75,-0.75 0,-0.414214 0.335786,-0.75 0.75,-0.75 0.414214,0 0.75,0.335786 0.75,0.75 z"/><path id="LeaderC" d="m 46,74 4,0" class="C Leader"/><text id="LabelC" x="52" y="74" class="C Label" style="text-anchor:start">C</text></g><g id="g21" transform="translate(0,-4.7669492)"><path id="ButtonD" d="m 24,82 20,0 0,10 c 0,2 -2,2 -2,2 l -16,0 c -2,0 -2,-2 -2,-2 l 0,-10" class="D Button"/><path id="LeaderD" d="m 46,88 4,0" class="D Leader"/><text id="LabelD" x="52" y="88" class="D Label" style="text-anchor:start">D</text></g><g id="g26" transform="translate(-0.26483051,-7.4152542)"><path id="ButtonE" d="M 24 156 c 0 -2 2 -2 2 -2 l 16 0 c 2 0 2 2 2 2 l 0 10 l -20 0 l -0 -10" class="E Button"/><path id="LeaderE" d="m 46,162 4,0" class="E Leader"/><text id="LabelE" x="52" y="162" class="E Label" style="text-anchor:start">E</text></g><g id="g31" transform="translate(-0.26483051,-11.122881)"><rect id="ButtonF" width="20" height="12" x="24" y="170" class="F Button"/><circle id="DotF1" cx="34" cy="176" r=".75" d="m 34.75,176 c 0,0.41421 -0.335786,0.75 -0.75,0.75 -0.414214,0 -0.75,-0.33579 -0.75,-0.75 0,-0.41421 0.335786,-0.75 0.75,-0.75 0.414214,0 0.75,0.33579 0.75,0.75 z"/><path id="LeaderF" d="m 46,176 4,0" class="F Leader"/><text id="LabelF" x="52" y="176" class="F Label" style="text-anchor:start">F</text></g><g id="g37" transform="translate(-0.26483051,-12.711865)"><rect id="ButtonG" width="20" height="12" x="24" y="184" class="G Button"/><rect id="DotG1" width="8" height="1" x="30" y="189.5" rx="1" ry="1"/><path id="LeaderG" d="m 46,190 4,0" class="G Leader"/><text id="LabelG" x="52" y="190" class="G Label" style="text-anchor:start">G</text></g><g id="g43" transform="translate(-0.26483051,-14.830508)"><path id="ButtonH" d="m 24,198 20,0 0,10 c 0,2 -2,2 -2,2 l -16,0 c -2,0 -2,-2 -2,-2 l 0,-10" class="H Button"/><path id="LeaderH" d="m 46,204 4,0" class="H Leader"/><text id="LabelH" x="52" y="204" class="H Label" style="text-anchor:start">H</text></g><g id="g48" transform="translate(-0.52966102,-6.0911017)"><circle id="Ring" cx="34" cy="125" r="19.5" d="m 53.5,125 c 0,10.76955 -8.730447,19.5 -19.5,19.5 -10.769553,0 -19.5,-8.73045 -19.5,-19.5 0,-10.76955 8.730447,-19.5 19.5,-19.5 10.769553,0 19.5,8.73045 19.5,19.5 z" class="Ring TouchRing"/><path id="LeaderRingCCW" d="m 34,105 0,-2 26,0" class="RingCCW Ring Leader"/><text id="LabelRingCCW" x="62" y="103" class="RingCCW Ring Label" style="text-anchor:start">CCW</text><path id="RingCCW" d="m 31,111 3,-1.5 0,1 a 7.5,7.5 0 0 1 5,1.5 6.5,6.5 0 0 0 -5,-0.5 l 0,1 z" class="RingCCW Button"/><path id="LeaderRingCW" d="m 34,145 0,2 26,0" class="RingCW Ring Leader"/><text id="LabelRingCW" x="62" y="147" class="RingCW Ring Label" style="text-anchor:start">CW</text><path id="RingCW" d="m 31,139 3,-1.5 0,1 a 7.5,7.5 0 0 0 5,-1 6.5,6.5 0 0 1 -5,2 l 0,1 z" class="RingCW Button"/></g><g id="g57" transform="translate(-0.52966107,-6.0911017)"><circle id="ButtonI" cx="34" cy="125" r="9.5" d="m 43.5,125 c 0,5.24671 -4.253295,9.5 -9.5,9.5 -5.246705,0 -9.5,-4.25329 -9.5,-9.5 0,-5.24671 4.253295,-9.5 9.5,-9.5 5.246705,0 9.5,4.25329 9.5,9.5 z" class="I ModeSwitch Button"/><path id="LeaderI" d="m 56,125 4,0" class="I ModeSwitch Leader"/><text id="LabelI" x="62" y="125" class="I ModeSwitch Label" style="text-anchor:start">I</text></g></svg>