<svg xmlns="http://www.w3.org/2000/svg" style="color:#000;stroke:#7f7f7f;fill:none;stroke-width:.25;font-size:8" id="intuos3-4x6" width="270" height="216" version="1.1"><title id="title">Wacom Intuos3 4x6</title><g><rect id="ButtonA" width="11" height="17" x="22" y="41" class="A Button" rx=".5" ry=".5"/><path id="LeaderA" d="M 28 39 l 0 -10 l 32 0" class="A Leader"/><text id="LabelA" x="62" y="29" class="A Label" style="text-anchor:start">A</text></g><g><rect id="ButtonB" width="11" height="17" x="22" y="59" class="B Button" rx=".5" ry=".5"/><circle id="DotB" cx="27.5" cy="67.5" r=".5"/><path id="LeaderB" d="M 32 68 l 2 0 l 0 32 l 26 0" class="B Leader"/><text id="LabelB" x="62" y="100" class="B Label" style="text-anchor:start">B</text></g><g><rect id="ButtonC" width="11" height="35" x="10" y="41" class="C Button" rx=".5" ry=".5"/><path id="LeaderC" d="M 8 58 l -1 0 l 0 -48 l 53 0" class="C Leader"/><text id="LabelC" x="62" y="10" class="C Label" style="text-anchor:start">C</text></g><g><rect id="ButtonD" width="23" height="11" x="10" y="77" class="D Button" rx=".5" ry=".5"/><path id="LeaderD" d="M 22 90 l 0 29 l 38 0" class="D Leader"/><text id="LabelD" x="62" y="119" class="D Label" style="text-anchor:start">D</text></g><g><rect id="Strip" width="12" height="47" x="35" y="41" class="Strip TouchStrip" rx="1" ry="1"/><path id="LeaderStripUp" d="M 41 39 l 0 -1 l 10 0 l 0 10 l 9 0" class="StripUp Strip Leader"/><text id="LabelStripUp" x="62" y="48" class="StripUp Strip Label" style="text-anchor:start">Up</text><path id="LeaderStripDown" d="M 41 90 l 0 1 l 10 0 l 0 -10 l 9 0" class="StripDown Strip Leader"/><text id="LabelStripDown" x="62" y="81" class="StripDown Strip Label" style="text-anchor:start">Down</text></g></svg>