<svg xmlns="http://www.w3.org/2000/svg" style="color:#000;stroke:#7f7f7f;fill:none;stroke-width:.25;font-size:8" id="intuos-pro-m" width="380" height="250" version="1.1"><title id="title">Wacom MobileStudio Pro 16</title><g><circle id="Ring" cx="34" cy="125" r="19.5" class="Ring TouchRing"/><path id="LeaderRingCW" d="M 12 111 L 12 96 L 65 96 L 65 83 L 73 83" class="RingCW Ring Leader"/><text id="LabelRingCW" x="75" y="83" class="RingCW Ring Label" style="text-anchor:start">CW</text><g transform="rotate(-90,31,111) translate(-10,-20)"><path id="RingCW" d="M 31 111 l 3 -1.5 l 0 1 a 7.5 7.5 0 0 1 5 1.5 a 6.5 6.5 0 0 0 -5 -0.5 l 0 1 z" class="RingCW Button"/></g><path id="LeaderRingCCW" d="M 12 139 L 12 154 L 65 154 L 65 167 L 73 167" class="RingCCW Ring Leader"/><text id="LabelRingCCW" x="75" y="167" class="RingCCW Ring Label" style="text-anchor:start">CCW</text><g transform="rotate(90,31,139) translate(-10,20)"><path id="RingCCW" d="M 31 139 l 3 -1.5 l 0 1 a 7.5 7.5 0 0 0 5 -1 a 6.5 6.5 0 0 1 -5 2 l 0 1 z" class="RingCCW Button"/></g></g><g><rect id="ButtonA" width="20" height="12" x="24" y="40" class="A Button" rx="2" ry="2"/><circle id="DotA1" cx="34" cy="46" r=".75"/><path id="LeaderA" d="M 47 46 L 49 46 L 49 27 L 63 27" class="A Leader"/><text id="LabelA" x="65" y="27" class="A Label" style="text-anchor:start">A</text></g><g><rect id="ButtonB" width="20" height="12" x="24" y="54" class="B Button" rx="2" ry="2"/><path id="LeaderB" d="M 46 60 L 53 60 L 53 41 L 63 41" class="B Leader"/><text id="LabelB" x="65" y="41" class="B Label" style="text-anchor:start">B</text></g><g><rect id="ButtonC" width="20" height="12" x="24" y="68" class="C Button" rx="2" ry="2"/><circle id="DotC1" cx="34" cy="74" r=".75"/><path id="LeaderC" d="M 46 74 L 57 74 L 57 55 L 63 55" class="C Leader"/><text id="LabelC" x="65" y="55" class="C Label" style="text-anchor:start">C</text></g><g><rect id="ButtonD" width="20" height="12" x="24" y="82" class="D Button" rx="2" ry="2"/><path id="LeaderD" d="M 46 88 L 61 88 L 61 69 L 63 69" class="D Leader"/><text id="LabelD" x="65" y="69" class="D Label" style="text-anchor:start">D</text></g><g><rect id="ButtonE" width="20" height="12" x="24" y="156" class="E Button" rx="2" ry="2"/><path id="LeaderE" d="M 46 162 L 61 162 L 61 181 L 63 181" class="E Leader"/><text id="LabelE" x="65" y="181" class="E Label" style="text-anchor:start">E</text></g><g><rect id="ButtonF" width="20" height="12" x="24" y="170" class="F Button" rx="2" ry="2"/><circle id="DotF1" cx="34" cy="176" r=".75"/><path id="LeaderF" d="M 46 176 L 57 176 L 57 195 L 63 195" class="F Leader"/><text id="LabelF" x="65" y="195" class="F Label" style="text-anchor:start">F</text></g><g><rect id="ButtonG" width="20" height="12" x="24" y="184" class="G Button" rx="2" ry="2"/><path id="LeaderG" d="M 46 190 L 53 190 L 53 209 L 63 209" class="G Leader"/><text id="LabelG" x="65" y="209" class="G Label" style="text-anchor:start">G</text></g><g><rect id="ButtonH" width="20" height="12" x="24" y="198" class="H Button" rx="2" ry="2"/><circle id="DotF1" cx="34" cy="204" r=".75"/><path id="LeaderH" d="M 46 204 L 49 204 L 49 223 L 63 223" class="H Leader"/><text id="LabelH" x="65" y="223" class="H Label" style="text-anchor:start">H</text></g><g><circle id="ButtonI" cx="34" cy="125" r="9.5" class="I Button"/><path id="LeaderI" d="M 25 116 L 20 106 L 20 101 L 69 101 L 69 97 L 73 97" class="I Leader"/><text id="LabelI" x="75" y="97" class="I Label" style="text-anchor:start">I</text></g><g><circle id="ButtonJ" cx="48.5" cy="125" r=".75" class="J ModeSwitch Button"/><path id="LeaderJ" d="M 56 125 L 73 125" class="J ModeSwitch Leader"/><text id="LabelJ" x="75" y="125" class="J ModeSwitch Label" style="text-anchor:start">J</text></g><g><circle id="ButtonK" cx="34" cy="110.5" r=".75" class="K ModeSwitch Button"/><path id="LeaderK" d="M 38 111 L 73 111" class="K ModeSwitch Leader"/><text id="LabelK" x="75" y="111" class="K ModeSwitch Label" style="text-anchor:start">K</text></g><g><circle id="ButtonL" cx="19.5" cy="125" r=".75" class="L ModeSwitch Button"/><path id="LeaderL" d="M 19 129 L 19 148 L 69 148 L 69 153 L 73 153" class="L ModeSwitch Leader"/><text id="LabelL" x="75" y="153" class="L ModeSwitch Label" style="text-anchor:start">L</text></g><g><circle id="ButtonM" cx="34" cy="139.5" r=".75" class="M ModeSwitch Button"/><path id="LeaderM" d="M 38 139 L 73 139" class="M ModeSwitch Leader"/><text id="LabelM" x="75" y="139" class="M ModeSwitch Label" style="text-anchor:start">M</text></g></svg>