<svg xmlns="http://www.w3.org/2000/svg" style="color:#000;stroke:#7f7f7f;fill:none;stroke-width:.25;font-size:8" id="intuos-pro-m" width="360" height="210" version="1.1"><title id="title">XP-Pen Star 03</title><g><rect id="ButtonA" width="23.5" height="10." x="21." y="19" class="A ModeSwitch Button"/><path id="LeaderA" d="m 51,26 h 4" class="A ModeSwitch Leader"/><text id="LabelA" x="57" y="26" class="A ModeSwitch Label" style="text-anchor:start">A</text></g><g><rect id="ButtonB" width="23.5" height="10." x="21." y="38" class="B ModeSwitch Button"/><path id="LeaderB" d="m 51,45 h 4" class="B ModeSwitch Leader"/><text style="text-anchor:start" id="LabelB" x="57" y="45" class="B ModeSwitch Label">B</text></g><g><rect id="ButtonC" width="23.5" height="10." x="21." y="57" class="C ModeSwitch Button"/><path id="LeaderC" d="m 51,64 h 4" class="C ModeSwitch Leader"/><text id="LabelC" x="57" y="64" class="C ModeSwitch Label" style="text-anchor:start">C</text></g><g><rect id="ButtonD" width="23.5" height="10." x="21." y="76" class="D ModeSwitch Button"/><path id="LeaderD" d="m 51,83 h 4" class="D ModeSwitch Leader"/><text id="LabelD" x="57" y="83" class="D ModeSwitch Label" style="text-anchor:start">D</text></g><g><rect id="ButtonE" width="23.5" height="10." x="21." y="122" class="E ModeSwitch Button"/><path id="LeaderE" d="m 51,129 h 4" class="E ModeSwitch Leader"/><text id="LabelE" x="57" y="129" class="E ModeSwitch Label" style="text-anchor:start">E</text></g><g><rect id="ButtonF" width="23.5" height="10." x="21." y="141" class="F ModeSwitch Button"/><path id="LeaderF" d="m 51,148 h 4" class="F ModeSwitch Leader"/><text id="LabelF" x="57" y="148" class="F ModeSwitch Label" style="text-anchor:start">F</text></g><g><rect id="ButtonG" width="23.5" height="10." x="21." y="160" class="G ModeSwitch Button"/><path id="LeaderG" d="m 51,167 h 4" class="G ModeSwitch Leader"/><text id="LabelG" x="57" y="167" class="G ModeSwitch Label" style="text-anchor:start">G</text></g><g><rect id="ButtonH" width="23.5" height="10." x="21." y="179" class="H ModeSwitch Button"/><path id="LeaderH" d="m 51,186 h 4" class="H ModeSwitch Leader"/><text id="LabelH" x="57" y="186" class="H ModeSwitch Label" style="text-anchor:start">H</text></g></svg>